<svg version="1.1" id="Layer_1" xmlns="http://www.w3.org/2000/svg" xmlns:xlink="http://www.w3.org/1999/xlink" x="0px" y="0px"
	 width="100%" viewBox="0 0 1200 1200" enable-background="new 0 0 1200 1200" xml:space="preserve">
<path fill="#000000" opacity="1.000000" stroke="none" 
	d="
M555.000000,1201.000000 
	C370.000000,1201.000000 185.500000,1201.000000 1.000000,1201.000000 
	C1.000000,801.000000 1.000000,401.000000 1.000000,1.000000 
	C401.000000,1.000000 801.000000,1.000000 1201.000000,1.000000 
	C1201.000000,401.000000 1201.000000,801.000000 1201.000000,1201.000000 
	C985.833313,1201.000000 770.666687,1201.000000 555.000000,1201.000000 
M616.145142,521.678589 
	C613.729553,530.117493 611.313965,538.556396 609.041199,546.496399 
	C600.110229,546.496399 592.266907,546.496399 584.523193,546.496399 
	C582.986572,538.558350 581.528809,530.817200 579.985291,523.093201 
	C575.189758,499.094391 570.373596,475.099731 565.541870,451.108185 
	C562.394348,435.479706 559.207764,419.859070 556.033630,404.235931 
	C555.483093,401.526428 555.751526,399.570648 558.584717,397.786469 
	C568.025818,391.841217 572.032532,382.831940 572.004456,371.842712 
	C571.966919,357.159210 563.235352,345.627899 548.982239,341.492188 
	C536.041931,337.737396 520.927795,343.468140 513.640442,354.892548 
	C504.428925,369.333405 509.002258,390.670746 523.629944,398.647827 
	C528.938416,401.542725 535.259583,402.580475 541.949524,404.732941 
	C545.837280,424.958099 549.817993,446.438141 554.121216,467.853333 
	C559.205688,493.157043 564.544006,518.409973 569.826660,543.673584 
	C571.372253,551.064941 571.454285,551.041321 564.776123,554.642395 
	C563.914978,555.106689 563.046387,555.592529 562.282715,556.196655 
	C555.442261,561.607361 548.624512,567.046814 541.471313,572.739563 
	C502.124634,546.689331 462.360229,520.362610 422.665497,494.082031 
	C426.317719,471.917633 414.906097,459.366302 401.813293,454.811584 
	C387.184509,449.722595 370.372040,456.771820 363.960175,469.071533 
	C356.751038,482.900604 359.090973,498.848877 372.590698,510.018372 
	C381.802490,517.640076 400.336456,520.463501 415.510803,506.391083 
	C454.967102,532.538940 494.427216,558.689270 533.874512,584.831116 
	C533.823547,585.448853 533.907227,585.991333 533.724426,586.420349 
	C529.374268,596.631104 526.253235,607.111511 525.818787,618.327942 
	C525.769836,619.591125 523.639709,621.514038 522.173950,621.861267 
	C512.908813,624.055969 503.588013,626.061584 494.207764,627.677979 
	C492.673950,627.942322 489.924103,626.416077 489.140076,624.960999 
	C480.109741,608.201660 455.367188,605.945251 441.799011,617.103516 
	C428.321106,628.187439 426.831940,652.408508 440.159180,664.493713 
	C456.095154,678.944580 479.173279,674.531860 488.864960,658.002197 
	C491.617096,653.308289 492.990936,647.806274 495.237610,642.058960 
	C505.540314,639.932983 516.561646,637.658691 527.831604,635.333130 
	C530.962585,649.234558 537.159241,660.812683 546.722961,670.451660 
	C532.014160,687.365967 517.497070,704.059814 503.049225,720.674072 
	C502.017456,720.330566 501.339874,720.239990 500.812164,719.909912 
	C480.590668,707.261292 450.875305,726.311523 454.758209,751.653320 
	C457.016388,766.391357 470.270142,779.324646 486.408508,779.235107 
	C505.762360,779.127747 524.529480,759.369141 515.583374,736.739319 
	C513.487488,731.437622 514.838623,728.854614 518.024536,725.362122 
	C524.022705,718.786926 529.654480,711.878113 535.461060,705.127380 
	C541.921021,697.617065 548.456726,690.171021 554.849243,682.604004 
	C556.729187,680.378540 558.106506,680.681519 560.645569,681.919983 
	C567.563232,685.294128 574.608032,688.682556 581.967102,690.794922 
	C588.526978,692.677917 595.574158,692.863159 602.786682,693.849670 
	C608.465576,729.143311 614.197083,764.763672 619.911377,800.277039 
	C601.412964,810.159668 597.167908,826.837769 603.134277,842.628784 
	C607.564209,854.353577 621.100830,864.412964 638.603271,860.945374 
	C653.147705,858.063782 664.607849,844.053589 663.957703,829.375549 
	C663.305908,814.663330 652.613098,800.253723 634.136902,798.539062 
	C631.438293,781.673096 628.761475,764.653687 625.981628,747.651184 
	C623.142700,730.286560 620.259644,712.928711 617.251404,695.592896 
	C616.738342,692.636536 617.285217,690.955872 620.308777,689.984070 
	C624.220642,688.726807 628.153015,687.375122 631.823425,685.553955 
	C644.509155,679.259644 654.338501,669.720886 662.398132,658.180908 
	C663.315674,656.867126 665.447021,655.303894 666.733154,655.521973 
	C675.302246,656.974670 683.788452,658.910645 692.312927,660.633545 
	C719.376160,666.103210 746.427429,671.635132 773.530762,676.898560 
	C777.124451,677.596375 778.270508,679.291809 779.037231,682.500122 
	C780.199402,687.362915 781.215393,692.477295 783.559937,696.797546 
	C789.095886,706.998596 798.861145,711.559998 809.817871,711.759155 
	C821.544312,711.972290 831.133545,706.318909 837.348633,696.124084 
	C845.035645,683.514893 842.597656,666.979004 831.247192,656.509277 
	C819.916992,646.058105 800.061157,645.027771 789.683899,656.328796 
	C783.834534,662.698730 778.459167,664.549255 770.820129,661.967712 
	C770.355103,661.810547 769.863892,661.725708 769.380493,661.628784 
	C745.046204,656.749146 720.709351,651.882202 696.377808,646.988892 
	C687.604370,645.224426 678.843689,643.396973 670.879333,641.762817 
	C671.633179,633.135010 672.439819,625.296082 672.938477,617.437622 
	C673.112366,614.696899 673.810852,613.484924 676.770508,612.812988 
	C690.005066,609.808350 703.152710,606.421387 716.261292,603.189819 
	C725.757080,620.142761 738.541504,622.809326 751.005493,620.651550 
	C765.518311,618.139099 774.343323,608.256409 776.440002,593.940979 
	C778.049744,582.950134 774.407898,573.135681 765.219788,565.564514 
	C746.299622,549.974060 718.418640,559.919250 713.997314,584.164001 
	C713.348572,587.721558 712.064270,590.073608 707.955750,590.641724 
	C703.746765,591.223755 699.670959,592.724976 695.511230,593.716187 
	C687.132019,595.712891 678.735413,597.636658 671.627197,599.292114 
	C666.118408,589.199890 661.123108,580.048279 656.065918,570.783447 
	C664.464966,561.628967 673.281677,551.960144 682.163879,542.351990 
	C695.032837,528.431335 707.897156,514.505798 720.858582,500.671417 
	C737.151123,483.281494 753.571838,466.011597 769.869263,448.626221 
	C775.406189,442.719666 780.663513,436.549835 786.246094,430.688538 
	C787.031799,429.863647 789.281982,429.457825 790.290344,429.969452 
	C802.434448,436.131104 814.068787,435.868958 825.073181,427.486023 
	C835.609009,419.460114 839.717407,408.829834 836.936768,395.839539 
	C834.381653,383.903290 827.216675,375.791779 815.465515,372.311096 
	C793.312073,365.749298 771.900330,382.916077 775.033081,405.653076 
	C775.499817,409.040649 776.660400,412.328186 777.246155,415.706085 
	C777.465393,416.970428 777.420898,418.728394 776.703003,419.628143 
	C773.932800,423.100098 770.875977,426.347595 767.863953,429.621735 
	C759.799316,438.388092 751.758850,447.177734 743.606934,455.862518 
	C727.268921,473.268524 710.867859,490.615356 694.482483,507.976898 
	C688.673218,514.132324 682.744629,520.177734 677.028625,526.418213 
	C667.314453,537.023682 657.767273,547.782227 648.025452,558.361816 
	C646.945312,559.534790 644.494568,561.023438 643.629028,560.566589 
	C636.717285,556.918640 630.034546,552.836731 623.348083,548.926697 
	C625.073608,542.602478 626.764404,536.261719 628.538208,529.944336 
	C630.317139,523.608582 632.357178,517.339844 633.925110,510.953979 
	C634.651794,507.994415 635.911255,506.812012 638.983154,506.958160 
	C648.973083,507.433380 656.419983,502.576447 663.160400,495.688293 
	C673.429443,485.194153 672.533997,460.774872 658.456055,450.677124 
	C647.774963,443.015869 636.943970,441.961823 625.441101,446.976959 
	C613.796814,452.053711 607.574829,461.608246 607.132507,474.166534 
	C606.718872,485.913269 611.728943,495.492188 621.488464,502.203217 
	C619.796204,508.601257 618.162842,514.776489 616.145142,521.678589 
M799.481750,953.059387 
	C790.482483,976.161743 781.483215,999.264099 772.239624,1022.993591 
	C779.837402,1022.993591 786.782410,1022.823669 793.714233,1023.051941 
	C798.511414,1023.209961 801.671448,1021.122803 803.483582,1016.950500 
	C805.383545,1012.575806 807.286072,1008.159546 808.613708,1003.594666 
	C809.436646,1000.765198 810.757202,999.912048 813.504639,999.955505 
	C821.160706,1000.076538 828.828125,999.813782 836.471069,1000.152649 
	C838.017883,1000.221191 840.131714,1001.955383 840.846924,1003.461609 
	C842.600891,1007.155762 843.142517,1011.493835 845.212830,1014.949097 
	C847.051636,1018.017761 850.040527,1022.095337 852.959595,1022.490173 
	C860.733582,1023.541504 868.743530,1022.847656 877.102783,1022.847656 
	C876.684143,1021.333191 876.513245,1020.401245 876.174561,1019.534790 
	C863.784912,987.834167 851.343079,956.153870 839.044556,924.417969 
	C838.029358,921.798096 836.740723,920.865173 834.001099,920.953125 
	C828.346680,921.134766 822.659607,921.315979 817.029846,920.901367 
	C813.077942,920.610229 811.389465,922.453552 810.169739,925.667419 
	C806.783569,934.590088 803.322083,943.484070 799.481750,953.059387 
M459.998383,991.500000 
	C459.998383,977.095947 459.998383,962.691895 459.998383,948.414062 
	C450.850494,948.414062 442.612640,948.414062 434.002594,948.414062 
	C434.002594,963.626709 434.012726,978.430359 433.997253,993.234070 
	C433.991608,998.634277 431.548767,1000.849121 425.592377,1000.946838 
	C421.026031,1001.021790 419.058014,998.874268 419.020660,993.373352 
	C418.948303,982.712585 418.997894,972.051025 418.997162,961.389771 
	C418.996857,957.110291 418.997101,952.830811 418.997101,948.457947 
	C409.995728,948.457947 401.641205,948.457947 393.002411,948.457947 
	C393.002411,964.393677 392.857330,979.878052 393.097687,995.356384 
	C393.163147,999.571472 393.762085,1003.999695 395.210236,1007.926697 
	C398.444000,1016.695923 404.902161,1022.580933 414.259399,1023.825867 
	C421.269623,1024.758423 428.494812,1024.484741 435.120728,1021.035095 
	C435.902679,1020.627991 437.241455,1020.206909 437.779114,1020.578308 
	C444.694275,1025.355957 452.220947,1021.924255 459.998383,1023.160156 
	C459.998383,1012.403564 459.998383,1002.451782 459.998383,991.500000 
M373.546875,945.043701 
	C363.758942,929.452393 349.803314,921.155640 331.259094,921.018372 
	C320.598022,920.939453 309.935883,921.004456 299.274231,921.004639 
	C295.669769,921.004761 292.065308,921.004761 288.313110,921.004761 
	C288.313110,955.287964 288.313110,988.847534 288.313110,1022.723022 
	C290.222748,1022.823730 291.844635,1022.981079 293.466797,1022.983521 
	C306.960419,1023.004028 320.469879,1023.407227 333.943542,1022.888611 
	C349.471130,1022.291016 362.413574,1015.607544 371.030884,1002.628418 
	C383.096313,984.456055 382.950745,965.180176 373.546875,945.043701 
M594.262634,968.986511 
	C595.497375,968.103577 597.748413,967.277100 597.801086,966.328552 
	C598.129700,960.408325 597.966919,954.460815 597.966919,947.962097 
	C592.089844,947.962097 586.841370,947.962097 580.921021,947.962097 
	C580.921021,941.033813 580.921021,934.657043 580.921021,928.009705 
	C578.407349,928.009705 576.590515,928.011658 574.773621,928.009399 
	C560.006470,927.990906 559.797607,927.949341 556.963379,942.272095 
	C555.982666,947.228149 553.791077,949.207397 548.846985,949.156189 
	C547.271973,949.139954 544.671143,950.446106 544.257263,951.709656 
	C541.310730,960.705566 544.826660,967.158203 554.010559,969.945496 
	C554.010559,980.819641 553.967224,991.799011 554.023621,1002.777771 
	C554.072693,1012.341675 559.491333,1020.322510 568.635681,1022.891113 
	C577.109863,1025.271362 585.516724,1024.641113 593.550781,1020.220459 
	C601.659790,1015.758545 601.781494,1015.985352 597.242065,1008.528015 
	C596.986084,1008.107605 596.847351,1007.617126 596.604553,1007.187195 
	C592.123596,999.252014 589.935913,998.285950 581.470337,1000.481934 
	C581.470337,990.098877 581.470337,979.715820 581.470337,968.989685 
	C585.687256,968.989685 589.502014,968.989685 594.262634,968.986511 
M479.098083,1008.250732 
	C483.187012,1012.217896 486.679077,1017.241821 491.477875,1019.952087 
	C505.337433,1027.779541 527.206238,1025.703979 538.581970,1010.853271 
	C539.226990,1010.011108 540.083191,1008.315674 539.745850,1007.894287 
	C536.607361,1003.974426 533.769470,999.463562 529.759521,996.695618 
	C526.133423,994.192566 521.796692,996.544983 518.361206,999.140259 
	C512.295105,1003.722778 503.884674,1001.056946 501.523468,994.174622 
	C499.425873,988.060730 499.641602,982.211975 501.940704,976.385498 
	C504.250000,970.533203 506.707977,969.028076 512.902405,969.984741 
	C515.543274,970.392639 518.077087,971.719421 520.565857,972.837219 
	C525.136963,974.890442 529.334595,974.662903 532.694214,970.721619 
	C535.335938,967.622437 537.617371,964.216187 540.132080,960.848206 
	C537.359924,958.086304 535.033386,955.201050 532.170227,953.020447 
	C523.085205,946.101196 512.305664,945.871155 501.876678,947.455261 
	C494.498444,948.575989 487.132996,951.738464 482.386841,958.301453 
	C471.076874,973.940613 470.480957,990.447388 479.098083,1008.250732 
M665.478882,955.017700 
	C657.703003,947.990234 648.342651,946.659851 638.296631,946.932739 
	C625.570496,947.278381 612.240051,956.772827 607.914490,968.739319 
	C604.728455,977.553284 603.985107,986.464966 606.117310,995.498413 
	C608.762512,1006.704712 614.692810,1015.499207 625.372437,1020.806274 
	C632.558105,1024.376953 640.112427,1024.150146 647.722168,1023.977966 
	C658.813965,1023.727051 667.667053,1018.783081 674.774658,1010.546570 
	C675.465088,1009.746338 675.615967,1007.649536 675.055420,1006.762085 
	C673.579346,1004.425232 671.701294,1002.297424 669.752991,1000.312378 
	C664.566040,995.027405 661.975220,994.831116 655.205200,997.861023 
	C651.660645,999.447327 647.822144,1000.471008 644.028748,1001.384766 
	C638.762939,1002.653259 633.612610,998.055908 633.602173,991.992615 
	C644.414062,991.992615 655.228882,992.004272 666.043701,991.988464 
	C672.866028,991.978516 674.220032,990.664917 675.025879,983.766907 
	C676.287109,972.971680 672.774048,963.734131 665.478882,955.017700 
M688.026550,1020.199890 
	C688.883972,1021.119507 689.721069,1022.814514 690.601868,1022.837524 
	C698.539795,1023.044678 706.485474,1022.958740 714.989136,1022.958740 
	C714.989136,1020.586243 714.989136,1018.800964 714.989197,1017.015625 
	C714.989441,1005.355835 714.954590,993.695923 715.004211,982.036316 
	C715.030579,975.835632 717.898499,973.039856 724.045349,973.003479 
	C725.710999,972.993652 727.378723,972.936157 729.041931,972.997131 
	C733.837402,973.173096 736.370789,970.693604 736.983948,966.135742 
	C737.655518,961.143372 738.170532,956.130005 738.749023,951.165955 
	C729.387451,944.865784 720.343384,945.537720 712.059448,951.138672 
	C704.187622,945.732422 696.116211,948.796265 688.013245,948.147034 
	C688.013245,972.315308 688.013245,995.782715 688.026550,1020.199890 
M886.010010,950.500000 
	C886.010010,974.565674 886.010010,998.631409 886.010010,1022.579773 
	C895.818054,1022.579773 904.722351,1022.579773 913.631714,1022.579773 
	C913.631714,988.608643 913.631714,955.048340 913.631714,921.332031 
	C904.368103,921.332031 895.466736,921.332031 886.010010,921.332031 
	C886.010010,930.928711 886.010010,940.214355 886.010010,950.500000 
z"/>
<path fill="#217178" opacity="1.000000" stroke="none" 
	d="
M616.337280,521.315186 
	C618.162842,514.776489 619.796204,508.601257 621.488464,502.203217 
	C611.728943,495.492188 606.718872,485.913269 607.132507,474.166534 
	C607.574829,461.608246 613.796814,452.053711 625.441101,446.976959 
	C636.943970,441.961823 647.774963,443.015869 658.456055,450.677124 
	C672.533997,460.774872 673.429443,485.194153 663.160400,495.688293 
	C656.419983,502.576447 648.973083,507.433380 638.983154,506.958160 
	C635.911255,506.812012 634.651794,507.994415 633.925110,510.953979 
	C632.357178,517.339844 630.317139,523.608582 628.538208,529.944336 
	C626.764404,536.261719 625.073608,542.602478 623.348083,548.926697 
	C630.034546,552.836731 636.717285,556.918640 643.629028,560.566589 
	C644.494568,561.023438 646.945312,559.534790 648.025452,558.361816 
	C657.767273,547.782227 667.314453,537.023682 677.028625,526.418213 
	C682.744629,520.177734 688.673218,514.132324 694.482483,507.976898 
	C710.867859,490.615356 727.268921,473.268524 743.606934,455.862518 
	C751.758850,447.177734 759.799316,438.388092 767.863953,429.621735 
	C770.875977,426.347595 773.932800,423.100098 776.703003,419.628143 
	C777.420898,418.728394 777.465393,416.970428 777.246155,415.706085 
	C776.660400,412.328186 775.499817,409.040649 775.033081,405.653076 
	C771.900330,382.916077 793.312073,365.749298 815.465515,372.311096 
	C827.216675,375.791779 834.381653,383.903290 836.936768,395.839539 
	C839.717407,408.829834 835.609009,419.460114 825.073181,427.486023 
	C814.068787,435.868958 802.434448,436.131104 790.290344,429.969452 
	C789.281982,429.457825 787.031799,429.863647 786.246094,430.688538 
	C780.663513,436.549835 775.406189,442.719666 769.869263,448.626221 
	C753.571838,466.011597 737.151123,483.281494 720.858582,500.671417 
	C707.897156,514.505798 695.032837,528.431335 682.163879,542.351990 
	C673.281677,551.960144 664.464966,561.628967 656.065918,570.783447 
	C661.123108,580.048279 666.118408,589.199890 671.627197,599.292114 
	C678.735413,597.636658 687.132019,595.712891 695.511230,593.716187 
	C699.670959,592.724976 703.746765,591.223755 707.955750,590.641724 
	C712.064270,590.073608 713.348572,587.721558 713.997314,584.164001 
	C718.418640,559.919250 746.299622,549.974060 765.219788,565.564514 
	C774.407898,573.135681 778.049744,582.950134 776.440002,593.940979 
	C774.343323,608.256409 765.518311,618.139099 751.005493,620.651550 
	C738.541504,622.809326 725.757080,620.142761 716.261292,603.189819 
	C703.152710,606.421387 690.005066,609.808350 676.770508,612.812988 
	C673.810852,613.484924 673.112366,614.696899 672.938477,617.437622 
	C672.439819,625.296082 671.633179,633.135010 670.879333,641.762817 
	C678.843689,643.396973 687.604370,645.224426 696.377808,646.988892 
	C720.709351,651.882202 745.046204,656.749146 769.380493,661.628784 
	C769.863892,661.725708 770.355103,661.810547 770.820129,661.967712 
	C778.459167,664.549255 783.834534,662.698730 789.683899,656.328796 
	C800.061157,645.027771 819.916992,646.058105 831.247192,656.509277 
	C842.597656,666.979004 845.035645,683.514893 837.348633,696.124084 
	C831.133545,706.318909 821.544312,711.972290 809.817871,711.759155 
	C798.861145,711.559998 789.095886,706.998596 783.559937,696.797546 
	C781.215393,692.477295 780.199402,687.362915 779.037231,682.500122 
	C778.270508,679.291809 777.124451,677.596375 773.530762,676.898560 
	C746.427429,671.635132 719.376160,666.103210 692.312927,660.633545 
	C683.788452,658.910645 675.302246,656.974670 666.733154,655.521973 
	C665.447021,655.303894 663.315674,656.867126 662.398132,658.180908 
	C654.338501,669.720886 644.509155,679.259644 631.823425,685.553955 
	C628.153015,687.375122 624.220642,688.726807 620.308777,689.984070 
	C617.285217,690.955872 616.738342,692.636536 617.251404,695.592896 
	C620.259644,712.928711 623.142700,730.286560 625.981628,747.651184 
	C628.761475,764.653687 631.438293,781.673096 634.136902,798.539062 
	C652.613098,800.253723 663.305908,814.663330 663.957703,829.375549 
	C664.607849,844.053589 653.147705,858.063782 638.603271,860.945374 
	C621.100830,864.412964 607.564209,854.353577 603.134277,842.628784 
	C597.167908,826.837769 601.412964,810.159668 619.911377,800.277039 
	C614.197083,764.763672 608.465576,729.143311 602.786682,693.849670 
	C595.574158,692.863159 588.526978,692.677917 581.967102,690.794922 
	C574.608032,688.682556 567.563232,685.294128 560.645569,681.919983 
	C558.106506,680.681519 556.729187,680.378540 554.849243,682.604004 
	C548.456726,690.171021 541.921021,697.617065 535.461060,705.127380 
	C529.654480,711.878113 524.022705,718.786926 518.024536,725.362122 
	C514.838623,728.854614 513.487488,731.437622 515.583374,736.739319 
	C524.529480,759.369141 505.762360,779.127747 486.408508,779.235107 
	C470.270142,779.324646 457.016388,766.391357 454.758209,751.653320 
	C450.875305,726.311523 480.590668,707.261292 500.812164,719.909912 
	C501.339874,720.239990 502.017456,720.330566 503.049225,720.674072 
	C517.497070,704.059814 532.014160,687.365967 546.722961,670.451660 
	C537.159241,660.812683 530.962585,649.234558 527.831604,635.333130 
	C516.561646,637.658691 505.540314,639.932983 495.237610,642.058960 
	C492.990936,647.806274 491.617096,653.308289 488.864960,658.002197 
	C479.173279,674.531860 456.095154,678.944580 440.159180,664.493713 
	C426.831940,652.408508 428.321106,628.187439 441.799011,617.103516 
	C455.367188,605.945251 480.109741,608.201660 489.140076,624.960999 
	C489.924103,626.416077 492.673950,627.942322 494.207764,627.677979 
	C503.588013,626.061584 512.908813,624.055969 522.173950,621.861267 
	C523.639709,621.514038 525.769836,619.591125 525.818787,618.327942 
	C526.253235,607.111511 529.374268,596.631104 533.724426,586.420349 
	C533.907227,585.991333 533.823547,585.448853 533.874512,584.831116 
	C494.427216,558.689270 454.967102,532.538940 415.510803,506.391083 
	C400.336456,520.463501 381.802490,517.640076 372.590698,510.018372 
	C359.090973,498.848877 356.751038,482.900604 363.960175,469.071533 
	C370.372040,456.771820 387.184509,449.722595 401.813293,454.811584 
	C414.906097,459.366302 426.317719,471.917633 422.665497,494.082031 
	C462.360229,520.362610 502.124634,546.689331 541.471313,572.739563 
	C548.624512,567.046814 555.442261,561.607361 562.282715,556.196655 
	C563.046387,555.592529 563.914978,555.106689 564.776123,554.642395 
	C571.454285,551.041321 571.372253,551.064941 569.826660,543.673584 
	C564.544006,518.409973 559.205688,493.157043 554.121216,467.853333 
	C549.817993,446.438141 545.837280,424.958099 541.949524,404.732941 
	C535.259583,402.580475 528.938416,401.542725 523.629944,398.647827 
	C509.002258,390.670746 504.428925,369.333405 513.640442,354.892548 
	C520.927795,343.468140 536.041931,337.737396 548.982239,341.492188 
	C563.235352,345.627899 571.966919,357.159210 572.004456,371.842712 
	C572.032532,382.831940 568.025818,391.841217 558.584717,397.786469 
	C555.751526,399.570648 555.483093,401.526428 556.033630,404.235931 
	C559.207764,419.859070 562.394348,435.479706 565.541870,451.108185 
	C570.373596,475.099731 575.189758,499.094391 579.985291,523.093201 
	C581.528809,530.817200 582.986572,538.558350 584.523193,546.496399 
	C592.266907,546.496399 600.110229,546.496399 609.041199,546.496399 
	C611.313965,538.556396 613.729553,530.117493 616.337280,521.315186 
z"/>
<path fill="#237279" opacity="1.000000" stroke="none" 
	d="
M799.686035,952.724365 
	C803.322083,943.484070 806.783569,934.590088 810.169739,925.667419 
	C811.389465,922.453552 813.077942,920.610229 817.029846,920.901367 
	C822.659607,921.315979 828.346680,921.134766 834.001099,920.953125 
	C836.740723,920.865173 838.029358,921.798096 839.044556,924.417969 
	C851.343079,956.153870 863.784912,987.834167 876.174561,1019.534790 
	C876.513245,1020.401245 876.684143,1021.333191 877.102783,1022.847656 
	C868.743530,1022.847656 860.733582,1023.541504 852.959595,1022.490173 
	C850.040527,1022.095337 847.051636,1018.017761 845.212830,1014.949097 
	C843.142517,1011.493835 842.600891,1007.155762 840.846924,1003.461609 
	C840.131714,1001.955383 838.017883,1000.221191 836.471069,1000.152649 
	C828.828125,999.813782 821.160706,1000.076538 813.504639,999.955505 
	C810.757202,999.912048 809.436646,1000.765198 808.613708,1003.594666 
	C807.286072,1008.159546 805.383545,1012.575806 803.483582,1016.950500 
	C801.671448,1021.122803 798.511414,1023.209961 793.714233,1023.051941 
	C786.782410,1022.823669 779.837402,1022.993591 772.239624,1022.993591 
	C781.483215,999.264099 790.482483,976.161743 799.686035,952.724365 
M808.948120,944.474670 
	C799.415039,968.742615 789.881958,993.010620 780.066406,1017.997681 
	C784.228455,1017.997681 787.537964,1017.774658 790.805664,1018.049316 
	C795.850464,1018.473450 798.513428,1016.098267 799.954407,1011.503174 
	C801.347229,1007.061707 802.818359,1002.605835 804.784546,998.403870 
	C805.489014,996.898193 807.713562,995.196533 809.288452,995.152283 
	C819.604004,994.862427 829.933594,995.110413 840.254211,994.932251 
	C843.154541,994.882141 844.379028,996.048218 845.208069,998.597900 
	C846.750854,1003.342590 848.182373,1008.186768 850.394348,1012.623535 
	C851.489502,1014.820190 853.997009,1017.250671 856.253357,1017.723145 
	C860.209900,1018.551758 864.465027,1017.954529 869.333679,1017.954529 
	C868.545898,1015.660400 868.032715,1013.967041 867.390015,1012.324341 
	C857.448425,986.910522 847.484192,961.505615 837.538330,936.093384 
	C833.587341,925.998413 833.595581,926.215271 822.513733,925.895081 
	C817.879944,925.761169 815.144043,926.862061 813.862000,931.644043 
	C812.748840,935.795776 810.784363,939.719238 808.948120,944.474670 
z"/>
<path fill="#227279" opacity="1.000000" stroke="none" 
	d="
M459.998383,992.000000 
	C459.998383,1002.451782 459.998383,1012.403564 459.998383,1023.160156 
	C452.220947,1021.924255 444.694275,1025.355957 437.779114,1020.578308 
	C437.241455,1020.206909 435.902679,1020.627991 435.120728,1021.035095 
	C428.494812,1024.484741 421.269623,1024.758423 414.259399,1023.825867 
	C404.902161,1022.580933 398.444000,1016.695923 395.210236,1007.926697 
	C393.762085,1003.999695 393.163147,999.571472 393.097687,995.356384 
	C392.857330,979.878052 393.002411,964.393677 393.002411,948.457947 
	C401.641205,948.457947 409.995728,948.457947 418.997101,948.457947 
	C418.997101,952.830811 418.996857,957.110291 418.997162,961.389771 
	C418.997894,972.051025 418.948303,982.712585 419.020660,993.373352 
	C419.058014,998.874268 421.026031,1001.021790 425.592377,1000.946838 
	C431.548767,1000.849121 433.991608,998.634277 433.997253,993.234070 
	C434.012726,978.430359 434.002594,963.626709 434.002594,948.414062 
	C442.612640,948.414062 450.850494,948.414062 459.998383,948.414062 
	C459.998383,962.691895 459.998383,977.095947 459.998383,992.000000 
M401.898041,1009.437927 
	C405.799438,1012.338867 409.303253,1016.372314 413.683228,1017.909973 
	C423.453003,1021.339783 432.134949,1017.405823 439.798309,1010.969421 
	C442.836670,1018.493713 445.540741,1019.554749 454.588989,1017.174500 
	C454.588989,995.991333 454.588989,974.774719 454.588989,953.392639 
	C449.359070,953.392639 444.487030,953.392639 439.105286,953.392639 
	C439.105286,955.583252 439.105377,957.380005 439.105316,959.176758 
	C439.105011,971.498108 439.134521,983.819702 439.067749,996.140686 
	C439.059082,997.741760 438.992981,999.613342 438.198853,1000.890442 
	C435.414093,1005.368652 426.389771,1008.123291 421.054565,1006.421875 
	C416.142883,1004.855652 413.961487,1001.221375 413.921356,994.077148 
	C413.854950,982.255676 413.910339,970.433533 413.880890,958.611816 
	C413.876526,956.851990 413.689667,955.092529 413.595734,953.479248 
	C408.108093,953.479248 403.227448,953.479248 398.206146,953.479248 
	C398.206146,968.602051 397.990997,983.247070 398.357117,997.877563 
	C398.448853,1001.543945 400.408722,1005.163574 401.898041,1009.437927 
z"/>
<path fill="#227279" opacity="1.000000" stroke="none" 
	d="
M373.732361,945.367615 
	C382.950745,965.180176 383.096313,984.456055 371.030884,1002.628418 
	C362.413574,1015.607544 349.471130,1022.291016 333.943542,1022.888611 
	C320.469879,1023.407227 306.960419,1023.004028 293.466797,1022.983521 
	C291.844635,1022.981079 290.222748,1022.823730 288.313110,1022.723022 
	C288.313110,988.847534 288.313110,955.287964 288.313110,921.004761 
	C292.065308,921.004761 295.669769,921.004761 299.274231,921.004639 
	C309.935883,921.004456 320.598022,920.939453 331.259094,921.018372 
	C349.803314,921.155640 363.758942,929.452393 373.732361,945.367615 
M373.645325,982.894287 
	C373.957703,980.753052 374.326691,978.618408 374.573792,976.469666 
	C377.334259,952.466431 361.794128,930.148682 338.590668,927.285950 
	C323.990479,925.484680 309.039124,926.526917 294.244873,926.325439 
	C294.002991,926.322083 293.755554,926.724609 293.564758,926.890747 
	C293.564758,957.165710 293.564758,987.386353 293.564758,1017.714966 
	C307.473907,1017.714966 321.033081,1018.688660 334.397461,1017.490112 
	C355.197144,1015.624878 368.662964,1003.202148 373.645325,982.894287 
z"/>
<path fill="#24737A" opacity="1.000000" stroke="none" 
	d="
M593.789673,968.988098 
	C589.502014,968.989685 585.687256,968.989685 581.470337,968.989685 
	C581.470337,979.715820 581.470337,990.098877 581.468506,1000.484131 
	C589.935913,998.285950 592.123596,999.252014 596.604553,1007.187195 
	C596.847351,1007.617126 596.986084,1008.107605 597.242065,1008.528015 
	C601.781494,1015.985352 601.659790,1015.758545 593.550781,1020.220459 
	C585.516724,1024.641113 577.109863,1025.271362 568.635681,1022.891113 
	C559.491333,1020.322510 554.072693,1012.341675 554.023621,1002.777771 
	C553.967224,991.799011 554.010559,980.819641 554.010559,969.945496 
	C544.826660,967.158203 541.310730,960.705566 544.257263,951.709656 
	C544.671143,950.446106 547.271973,949.139954 548.846985,949.156189 
	C553.791077,949.207397 555.982666,947.228149 556.963379,942.272095 
	C559.797607,927.949341 560.006470,927.990906 574.773621,928.009399 
	C576.590515,928.011658 578.407349,928.009705 580.921021,928.009705 
	C580.921021,934.657043 580.921021,941.033813 580.921021,947.962097 
	C586.841370,947.962097 592.089844,947.962097 597.966919,947.962097 
	C597.966919,954.460815 598.129700,960.408325 597.801086,966.328552 
	C597.748413,967.277100 595.497375,968.103577 593.789673,968.988098 
M575.649536,1003.400696 
	C575.649536,990.481750 575.649536,977.562805 575.649536,963.932739 
	C581.004944,963.932739 586.392517,963.932739 591.865662,963.932739 
	C592.070129,962.104370 592.274658,960.968994 592.311890,959.828125 
	C592.534241,953.014221 592.521301,953.012207 585.620789,953.004456 
	C582.206238,953.000610 578.791687,953.003784 574.802185,953.003784 
	C574.802185,945.873169 574.802185,939.625244 574.802185,933.477478 
	C564.364685,932.167419 564.052673,932.381958 562.259827,941.640564 
	C561.911621,943.438416 561.288147,945.236389 561.280640,947.036377 
	C561.260559,951.860168 558.764038,953.963562 554.203308,953.931946 
	C550.305115,953.904968 549.618958,956.098328 549.728577,959.444580 
	C549.842896,962.935181 551.465088,964.188171 554.746338,964.022705 
	C556.023987,963.958374 557.318115,964.220032 559.261230,964.390869 
	C559.261230,966.912781 559.232239,969.194153 559.266235,971.474609 
	C559.432495,982.627625 559.380676,993.791199 559.890625,1004.928894 
	C560.150574,1010.606384 563.155762,1015.190979 568.638062,1017.316406 
	C577.565186,1020.777466 585.838013,1018.853027 593.837036,1013.808533 
	C593.066162,1012.364746 592.501404,1011.356140 591.981689,1010.324890 
	C590.023315,1006.438416 587.973022,1003.688354 582.773254,1006.429810 
	C581.318726,1007.196716 578.300476,1004.997681 575.649536,1003.400696 
z"/>
<path fill="#24737A" opacity="1.000000" stroke="none" 
	d="
M478.987915,1007.897156 
	C470.480957,990.447388 471.076874,973.940613 482.386841,958.301453 
	C487.132996,951.738464 494.498444,948.575989 501.876678,947.455261 
	C512.305664,945.871155 523.085205,946.101196 532.170227,953.020447 
	C535.033386,955.201050 537.359924,958.086304 540.132080,960.848206 
	C537.617371,964.216187 535.335938,967.622437 532.694214,970.721619 
	C529.334595,974.662903 525.136963,974.890442 520.565857,972.837219 
	C518.077087,971.719421 515.543274,970.392639 512.902405,969.984741 
	C506.707977,969.028076 504.250000,970.533203 501.940704,976.385498 
	C499.641602,982.211975 499.425873,988.060730 501.523468,994.174622 
	C503.884674,1001.056946 512.295105,1003.722778 518.361206,999.140259 
	C521.796692,996.544983 526.133423,994.192566 529.759521,996.695618 
	C533.769470,999.463562 536.607361,1003.974426 539.745850,1007.894287 
	C540.083191,1008.315674 539.226990,1010.011108 538.581970,1010.853271 
	C527.206238,1025.703979 505.337433,1027.779541 491.477875,1019.952087 
	C486.679077,1017.241821 483.187012,1012.217896 478.987915,1007.897156 
M522.458252,1002.952087 
	C508.947296,1011.790100 496.072479,1005.435913 495.064545,989.297852 
	C494.828003,985.510986 494.884125,981.577026 495.638367,977.880737 
	C498.147705,965.583191 508.653259,960.597290 519.925171,966.062317 
	C527.364624,969.669250 528.933716,969.022034 532.326538,960.644897 
	C531.184021,959.660522 530.044861,958.441895 528.690552,957.549927 
	C518.210999,950.647522 507.062195,950.126953 495.851318,955.122742 
	C484.858185,960.021545 480.189301,969.525391 479.033997,981.011353 
	C478.752075,983.813965 478.763428,986.686768 479.010223,989.494812 
	C480.053497,1001.363586 484.752441,1011.270203 496.093811,1016.292358 
	C507.637421,1021.404053 518.916809,1019.664795 529.197998,1012.432007 
	C531.036560,1011.138550 534.705139,1009.865234 531.996033,1006.345032 
	C529.795959,1003.486267 528.080322,998.997681 522.458252,1002.952087 
z"/>
<path fill="#23737A" opacity="1.000000" stroke="none" 
	d="
M665.739624,955.270264 
	C672.774048,963.734131 676.287109,972.971680 675.025879,983.766907 
	C674.220032,990.664917 672.866028,991.978516 666.043701,991.988464 
	C655.228882,992.004272 644.414062,991.992615 633.602173,991.992615 
	C633.612610,998.055908 638.762939,1002.653259 644.028748,1001.384766 
	C647.822144,1000.471008 651.660645,999.447327 655.205200,997.861023 
	C661.975220,994.831116 664.566040,995.027405 669.752991,1000.312378 
	C671.701294,1002.297424 673.579346,1004.425232 675.055420,1006.762085 
	C675.615967,1007.649536 675.465088,1009.746338 674.774658,1010.546570 
	C667.667053,1018.783081 658.813965,1023.727051 647.722168,1023.977966 
	C640.112427,1024.150146 632.558105,1024.376953 625.372437,1020.806274 
	C614.692810,1015.499207 608.762512,1006.704712 606.117310,995.498413 
	C603.985107,986.464966 604.728455,977.553284 607.914490,968.739319 
	C612.240051,956.772827 625.570496,947.278381 638.296631,946.932739 
	C648.342651,946.659851 657.703003,947.990234 665.739624,955.270264 
M668.638611,1009.126526 
	C666.225037,1001.191956 663.246094,999.861084 656.222290,1003.424683 
	C654.157837,1004.472107 651.996277,1005.426758 649.774170,1006.048645 
	C636.522888,1009.757263 626.106323,1001.299194 626.860474,987.050903 
	C639.287781,987.050903 651.746948,986.933289 664.201782,987.114868 
	C668.550842,987.178284 670.124878,985.469727 670.103210,981.228882 
	C670.046265,970.112610 666.532471,960.664062 656.259155,955.420288 
	C645.016968,949.681946 633.572754,950.439819 623.134827,957.658997 
	C608.226685,967.969727 605.777222,993.512451 617.965515,1008.238464 
	C629.558899,1022.245728 654.169006,1022.964844 668.638611,1009.126526 
z"/>
<path fill="#25747B" opacity="1.000000" stroke="none" 
	d="
M688.019897,1019.724976 
	C688.013245,995.782715 688.013245,972.315308 688.013245,948.147034 
	C696.116211,948.796265 704.187622,945.732422 712.059448,951.138672 
	C720.343384,945.537720 729.387451,944.865784 738.749023,951.165955 
	C738.170532,956.130005 737.655518,961.143372 736.983948,966.135742 
	C736.370789,970.693604 733.837402,973.173096 729.041931,972.997131 
	C727.378723,972.936157 725.710999,972.993652 724.045349,973.003479 
	C717.898499,973.039856 715.030579,975.835632 715.004211,982.036316 
	C714.954590,993.695923 714.989441,1005.355835 714.989197,1017.015625 
	C714.989136,1018.800964 714.989136,1020.586243 714.989136,1022.958740 
	C706.485474,1022.958740 698.539795,1023.044678 690.601868,1022.837524 
	C689.721069,1022.814514 688.883972,1021.119507 688.019897,1019.724976 
M709.301514,988.550903 
	C709.301392,987.719482 709.301025,986.888123 709.301086,986.056702 
	C709.302490,971.693970 713.494202,967.493469 727.800232,967.257751 
	C729.078003,967.236755 731.332886,966.353333 731.441772,965.619385 
	C732.015442,961.752869 733.433594,956.991455 731.779175,954.170959 
	C730.665344,952.272156 724.885498,952.508728 721.302368,952.870972 
	C718.904846,953.113342 716.464844,954.969360 714.471558,956.619812 
	C712.368164,958.361389 710.772888,960.716736 708.863098,962.910278 
	C705.840454,952.112488 704.623169,951.356812 694.361328,953.753662 
	C694.361328,975.044128 694.361328,996.349854 694.361328,1017.980896 
	C698.331848,1017.980896 701.817688,1017.834229 705.284973,1018.024963 
	C708.342773,1018.193176 709.378052,1016.959229 709.334229,1013.978577 
	C709.214478,1005.832581 709.298706,997.683716 709.301514,988.550903 
z"/>
<path fill="#24737A" opacity="1.000000" stroke="none" 
	d="
M886.010010,950.000000 
	C886.010010,940.214355 886.010010,930.928711 886.010010,921.332031 
	C895.466736,921.332031 904.368103,921.332031 913.631714,921.332031 
	C913.631714,955.048340 913.631714,988.608643 913.631714,1022.579773 
	C904.722351,1022.579773 895.818054,1022.579773 886.010010,1022.579773 
	C886.010010,998.631409 886.010010,974.565674 886.010010,950.000000 
M891.135193,955.500000 
	C891.135193,976.217712 891.135193,996.935425 891.135193,1017.567383 
	C897.319824,1017.567383 902.555725,1017.567383 907.839294,1017.567383 
	C907.839294,986.944946 907.839294,956.749817 907.839294,926.346558 
	C902.206116,926.346558 896.982727,926.346558 891.135376,926.346558 
	C891.135376,935.948792 891.135376,945.224365 891.135193,955.500000 
z"/>
<path fill="#9ABFC2" opacity="1.000000" stroke="none" 
	d="
M809.072144,944.109131 
	C810.784363,939.719238 812.748840,935.795776 813.862000,931.644043 
	C815.144043,926.862061 817.879944,925.761169 822.513733,925.895081 
	C833.595581,926.215271 833.587341,925.998413 837.538330,936.093384 
	C847.484192,961.505615 857.448425,986.910522 867.390015,1012.324341 
	C868.032715,1013.967041 868.545898,1015.660400 869.333679,1017.954529 
	C864.465027,1017.954529 860.209900,1018.551758 856.253357,1017.723145 
	C853.997009,1017.250671 851.489502,1014.820190 850.394348,1012.623535 
	C848.182373,1008.186768 846.750854,1003.342590 845.208069,998.597900 
	C844.379028,996.048218 843.154541,994.882141 840.254211,994.932251 
	C829.933594,995.110413 819.604004,994.862427 809.288452,995.152283 
	C807.713562,995.196533 805.489014,996.898193 804.784546,998.403870 
	C802.818359,1002.605835 801.347229,1007.061707 799.954407,1011.503174 
	C798.513428,1016.098267 795.850464,1018.473450 790.805664,1018.049316 
	C787.537964,1017.774658 784.228455,1017.997681 780.066406,1017.997681 
	C789.881958,993.010620 799.415039,968.742615 809.072144,944.109131 
M814.704224,971.180847 
	C813.340698,974.849670 811.977173,978.518433 810.476562,982.556030 
	C820.459778,982.556030 829.572144,982.556030 839.284302,982.556030 
	C834.396362,969.353394 829.728394,956.744934 824.839539,943.539673 
	C821.350586,953.036499 818.153320,961.739563 814.704224,971.180847 
z"/>
<path fill="#9ABFC2" opacity="1.000000" stroke="none" 
	d="
M401.704041,1009.121338 
	C400.408722,1005.163574 398.448853,1001.543945 398.357117,997.877563 
	C397.990997,983.247070 398.206146,968.602051 398.206146,953.479248 
	C403.227448,953.479248 408.108093,953.479248 413.595734,953.479248 
	C413.689667,955.092529 413.876526,956.851990 413.880890,958.611816 
	C413.910339,970.433533 413.854950,982.255676 413.921356,994.077148 
	C413.961487,1001.221375 416.142883,1004.855652 421.054565,1006.421875 
	C426.389771,1008.123291 435.414093,1005.368652 438.198853,1000.890442 
	C438.992981,999.613342 439.059082,997.741760 439.067749,996.140686 
	C439.134521,983.819702 439.105011,971.498108 439.105316,959.176758 
	C439.105377,957.380005 439.105286,955.583252 439.105286,953.392639 
	C444.487030,953.392639 449.359070,953.392639 454.588989,953.392639 
	C454.588989,974.774719 454.588989,995.991333 454.588989,1017.174500 
	C445.540741,1019.554749 442.836670,1018.493713 439.798309,1010.969421 
	C432.134949,1017.405823 423.453003,1021.339783 413.683228,1017.909973 
	C409.303253,1016.372314 405.799438,1012.338867 401.704041,1009.121338 
z"/>
<path fill="#9ABFC2" opacity="1.000000" stroke="none" 
	d="
M373.525452,983.297363 
	C368.662964,1003.202148 355.197144,1015.624878 334.397461,1017.490112 
	C321.033081,1018.688660 307.473907,1017.714966 293.564758,1017.714966 
	C293.564758,987.386353 293.564758,957.165710 293.564758,926.890747 
	C293.755554,926.724609 294.002991,926.322083 294.244873,926.325439 
	C309.039124,926.526917 323.990479,925.484680 338.590668,927.285950 
	C361.794128,930.148682 377.334259,952.466431 374.573792,976.469666 
	C374.326691,978.618408 373.957703,980.753052 373.525452,983.297363 
M335.498077,940.792969 
	C327.279266,940.433838 319.060486,940.074707 310.614746,939.705627 
	C310.614746,961.666443 310.614746,982.558472 310.614746,1004.008545 
	C316.604095,1004.008545 322.228241,1004.044434 327.851776,1004.001770 
	C343.727753,1003.881470 354.158142,995.386169 356.501984,979.730225 
	C357.347534,974.082336 357.050934,968.041382 356.069397,962.389221 
	C354.136627,951.259460 347.478271,943.883850 335.498077,940.792969 
z"/>
<path fill="#9ABFC2" opacity="1.000000" stroke="none" 
	d="
M575.824524,1003.779907 
	C578.300476,1004.997681 581.318726,1007.196716 582.773254,1006.429810 
	C587.973022,1003.688354 590.023315,1006.438416 591.981689,1010.324890 
	C592.501404,1011.356140 593.066162,1012.364746 593.837036,1013.808533 
	C585.838013,1018.853027 577.565186,1020.777466 568.638062,1017.316406 
	C563.155762,1015.190979 560.150574,1010.606384 559.890625,1004.928894 
	C559.380676,993.791199 559.432495,982.627625 559.266235,971.474609 
	C559.232239,969.194153 559.261230,966.912781 559.261230,964.390869 
	C557.318115,964.220032 556.023987,963.958374 554.746338,964.022705 
	C551.465088,964.188171 549.842896,962.935181 549.728577,959.444580 
	C549.618958,956.098328 550.305115,953.904968 554.203308,953.931946 
	C558.764038,953.963562 561.260559,951.860168 561.280640,947.036377 
	C561.288147,945.236389 561.911621,943.438416 562.259827,941.640564 
	C564.052673,932.381958 564.364685,932.167419 574.802185,933.477478 
	C574.802185,939.625244 574.802185,945.873169 574.802185,953.003784 
	C578.791687,953.003784 582.206238,953.000610 585.620789,953.004456 
	C592.521301,953.012207 592.534241,953.014221 592.311890,959.828125 
	C592.274658,960.968994 592.070129,962.104370 591.865662,963.932739 
	C586.392517,963.932739 581.004944,963.932739 575.649536,963.932739 
	C575.649536,977.562805 575.649536,990.481750 575.824524,1003.779907 
z"/>
<path fill="#9ABFC2" opacity="1.000000" stroke="none" 
	d="
M522.760742,1002.736816 
	C528.080322,998.997681 529.795959,1003.486267 531.996033,1006.345032 
	C534.705139,1009.865234 531.036560,1011.138550 529.197998,1012.432007 
	C518.916809,1019.664795 507.637421,1021.404053 496.093811,1016.292358 
	C484.752441,1011.270203 480.053497,1001.363586 479.010223,989.494812 
	C478.763428,986.686768 478.752075,983.813965 479.033997,981.011353 
	C480.189301,969.525391 484.858185,960.021545 495.851318,955.122742 
	C507.062195,950.126953 518.210999,950.647522 528.690552,957.549927 
	C530.044861,958.441895 531.184021,959.660522 532.326538,960.644897 
	C528.933716,969.022034 527.364624,969.669250 519.925171,966.062317 
	C508.653259,960.597290 498.147705,965.583191 495.638367,977.880737 
	C494.884125,981.577026 494.828003,985.510986 495.064545,989.297852 
	C496.072479,1005.435913 508.947296,1011.790100 522.760742,1002.736816 
z"/>
<path fill="#8CB6B9" opacity="1.000000" stroke="none" 
	d="
M668.438416,1009.416992 
	C654.169006,1022.964844 629.558899,1022.245728 617.965515,1008.238464 
	C605.777222,993.512451 608.226685,967.969727 623.134827,957.658997 
	C633.572754,950.439819 645.016968,949.681946 656.259155,955.420288 
	C666.532471,960.664062 670.046265,970.112610 670.103210,981.228882 
	C670.124878,985.469727 668.550842,987.178284 664.201782,987.114868 
	C651.746948,986.933289 639.287781,987.050903 626.860474,987.050903 
	C626.106323,1001.299194 636.522888,1009.757263 649.774170,1006.048645 
	C651.996277,1005.426758 654.157837,1004.472107 656.222290,1003.424683 
	C663.246094,999.861084 666.225037,1001.191956 668.438416,1009.416992 
M643.319641,968.617126 
	C639.581055,968.506714 635.650940,967.980774 634.018433,972.974060 
	C639.129822,972.974060 644.053772,972.974060 648.977661,972.974060 
	C649.166016,972.500793 649.354370,972.027466 649.542664,971.554199 
	C647.771118,970.571533 645.999573,969.588867 643.319641,968.617126 
z"/>
<path fill="#9BBFC2" opacity="1.000000" stroke="none" 
	d="
M709.301819,989.043457 
	C709.298706,997.683716 709.214478,1005.832581 709.334229,1013.978577 
	C709.378052,1016.959229 708.342773,1018.193176 705.284973,1018.024963 
	C701.817688,1017.834229 698.331848,1017.980896 694.361328,1017.980896 
	C694.361328,996.349854 694.361328,975.044128 694.361328,953.753662 
	C704.623169,951.356812 705.840454,952.112488 708.863098,962.910278 
	C710.772888,960.716736 712.368164,958.361389 714.471558,956.619812 
	C716.464844,954.969360 718.904846,953.113342 721.302368,952.870972 
	C724.885498,952.508728 730.665344,952.272156 731.779175,954.170959 
	C733.433594,956.991455 732.015442,961.752869 731.441772,965.619385 
	C731.332886,966.353333 729.078003,967.236755 727.800232,967.257751 
	C713.494202,967.493469 709.302490,971.693970 709.301086,986.056702 
	C709.301025,986.888123 709.301392,987.719482 709.301819,989.043457 
z"/>
<path fill="#9ABFC2" opacity="1.000000" stroke="none" 
	d="
M891.135254,955.000000 
	C891.135376,945.224365 891.135376,935.948792 891.135376,926.346558 
	C896.982727,926.346558 902.206116,926.346558 907.839294,926.346558 
	C907.839294,956.749817 907.839294,986.944946 907.839294,1017.567383 
	C902.555725,1017.567383 897.319824,1017.567383 891.135193,1017.567383 
	C891.135193,996.935425 891.135193,976.217712 891.135254,955.000000 
z"/>
<path fill="#24737A" opacity="1.000000" stroke="none" 
	d="
M814.830078,970.811768 
	C818.153320,961.739563 821.350586,953.036499 824.839539,943.539673 
	C829.728394,956.744934 834.396362,969.353394 839.284302,982.556030 
	C829.572144,982.556030 820.459778,982.556030 810.476562,982.556030 
	C811.977173,978.518433 813.340698,974.849670 814.830078,970.811768 
M820.394958,977.989929 
	C823.978394,977.989929 827.561890,977.989929 831.651794,977.989929 
	C829.418701,971.996460 827.407776,966.599243 824.908264,959.890747 
	C822.796570,965.420593 821.051025,969.711121 819.559387,974.088257 
	C819.170776,975.228394 819.573486,976.638123 820.394958,977.989929 
z"/>
<path fill="#25747B" opacity="1.000000" stroke="none" 
	d="
M335.908630,940.873657 
	C347.478271,943.883850 354.136627,951.259460 356.069397,962.389221 
	C357.050934,968.041382 357.347534,974.082336 356.501984,979.730225 
	C354.158142,995.386169 343.727753,1003.881470 327.851776,1004.001770 
	C322.228241,1004.044434 316.604095,1004.008545 310.614746,1004.008545 
	C310.614746,982.558472 310.614746,961.666443 310.614746,939.705627 
	C319.060486,940.074707 327.279266,940.433838 335.908630,940.873657 
M341.862030,994.565918 
	C346.423737,990.791382 349.626038,986.250732 350.784119,980.268005 
	C352.886597,969.406555 352.174225,959.308899 343.611084,951.157166 
	C335.787628,943.709656 326.019836,945.374268 316.398987,944.983215 
	C316.398987,963.278687 316.398987,980.961853 316.398987,998.931152 
	C325.194855,999.064331 333.590302,999.558594 341.862030,994.565918 
z"/>
<path fill="#000000" opacity="1.000000" stroke="none" 
	d="
M643.773804,968.611694 
	C645.999573,969.588867 647.771118,970.571533 649.542664,971.554199 
	C649.354370,972.027466 649.166016,972.500793 648.977661,972.974060 
	C644.053772,972.974060 639.129822,972.974060 634.018433,972.974060 
	C635.650940,967.980774 639.581055,968.506714 643.773804,968.611694 
z"/>
<path fill="#000000" opacity="1.000000" stroke="none" 
	d="
M820.003784,977.957031 
	C819.573486,976.638123 819.170776,975.228394 819.559387,974.088257 
	C821.051025,969.711121 822.796570,965.420593 824.908264,959.890747 
	C827.407776,966.599243 829.418701,971.996460 831.651794,977.989929 
	C827.561890,977.989929 823.978394,977.989929 820.003784,977.957031 
z"/>
<path fill="#000000" opacity="1.000000" stroke="none" 
	d="
M341.530731,994.738708 
	C333.590302,999.558594 325.194855,999.064331 316.398987,998.931152 
	C316.398987,980.961853 316.398987,963.278687 316.398987,944.983215 
	C326.019836,945.374268 335.787628,943.709656 343.611084,951.157166 
	C352.174225,959.308899 352.886597,969.406555 350.784119,980.268005 
	C349.626038,986.250732 346.423737,990.791382 341.530731,994.738708 
z"/>
</svg>