<svg width="673" height="409" viewBox="0 0 673 409" fill="none" xmlns="http://www.w3.org/2000/svg">
<path d="M190.782 278.016C190.726 277.829 190.808 277.533 191.028 277.128C191.248 276.724 191.452 276.494 191.639 276.438C192.986 278.009 194.455 279.645 196.044 281.347C197.634 283.05 199.334 284.55 201.143 285.848C203.016 287.127 204.983 288.039 207.045 288.583C209.125 289.19 211.289 289.161 213.536 288.496C215.534 287.905 217.125 286.857 218.31 285.353C219.494 283.848 220.063 281.983 220.015 279.756C218.875 274.526 217.339 269.448 215.406 264.52C213.474 259.592 211.425 254.733 209.261 249.942C207.079 245.088 204.905 240.265 202.741 235.474C200.559 230.62 198.679 225.643 197.103 220.542C197.01 220.23 196.868 219.865 196.677 219.446C196.529 218.947 196.453 218.46 196.448 217.986C196.444 217.512 196.52 217.082 196.678 216.696C196.835 216.31 197.226 216.025 197.85 215.84C198.537 215.637 199.259 215.899 200.017 216.625C204.274 225.278 208.421 234.133 212.458 243.191C216.495 252.249 219.88 261.397 222.613 270.637C223.352 273.134 223.848 275.5 224.101 277.733C224.417 279.948 224.297 281.952 223.741 283.746C223.204 285.602 222.191 287.226 220.701 288.617C219.23 290.071 217.121 291.204 214.374 292.016C212.002 292.718 209.557 292.83 207.039 292.353C204.603 291.919 202.265 291.015 200.025 289.641C197.866 288.311 195.946 286.638 194.264 284.624C192.644 282.591 191.483 280.388 190.782 278.016ZM252.063 262.435C252.035 263.258 251.715 264.473 251.104 266.08C250.537 267.605 249.792 269.218 248.868 270.916C247.927 272.553 246.886 274.083 245.745 275.506C244.649 276.849 243.57 277.677 242.508 277.991C240.511 278.582 238.579 278.135 236.714 276.65C234.912 275.146 233.233 273.029 231.678 270.298C230.124 267.567 228.695 264.459 227.393 260.974C226.072 257.427 224.873 253.946 223.795 250.531C222.717 247.116 221.762 244.003 220.931 241.194C220.1 238.385 219.379 236.29 218.767 234.909C218.832 234.211 219.033 233.744 219.371 233.509C219.771 233.254 220.252 233.044 220.814 232.878C221.313 232.73 221.769 232.664 222.18 232.678C222.654 232.673 223.139 232.937 223.636 233.469C223.839 234.156 224.181 235.311 224.661 236.934C225.204 238.539 225.842 240.353 226.576 242.376C227.292 244.337 228.045 246.422 228.834 248.633C229.606 250.781 230.318 252.845 230.971 254.824C231.687 256.785 232.316 258.568 232.859 260.172C233.445 261.696 233.881 262.823 234.165 263.554C234.356 263.973 234.631 264.672 234.989 265.653C235.409 266.615 235.879 267.63 236.399 268.698C236.963 269.686 237.53 270.57 238.1 271.352C238.734 272.115 239.34 272.445 239.921 272.341C240.857 272.064 241.673 271.381 242.37 270.293C243.129 269.186 243.792 267.869 244.359 266.344C244.926 264.818 245.394 263.186 245.762 261.448C246.131 259.709 246.424 258.061 246.642 256.503C246.904 254.864 247.025 253.436 247.004 252.22C247.047 250.986 247.025 250.109 246.94 249.592C246.751 248.493 246.432 246.958 245.985 244.986C245.519 242.951 244.984 240.801 244.382 238.535C243.78 236.269 243.183 234.137 242.592 232.139C242.064 230.123 241.643 228.584 241.329 227.523L246.562 226.28C248.12 231.319 249.446 235.917 250.54 240.074C251.616 244.169 252.72 248.017 253.854 251.62C254.969 255.16 256.275 258.542 257.771 261.765C259.268 264.989 261.207 268.217 263.589 271.45C263.457 271.693 263.157 272.054 262.687 272.532C262.236 273.073 261.886 273.38 261.636 273.454C260.075 273.916 258.857 273.699 257.981 272.804C257.186 271.953 256.492 270.868 255.898 269.55C255.349 268.151 254.808 266.783 254.277 265.447C253.79 264.029 253.052 263.025 252.063 262.435ZM275.65 265.744C275.668 265.807 276.213 265.238 277.284 264.039C278.417 262.821 279.695 261.289 281.118 259.442C282.585 257.515 284.055 255.485 285.529 253.351C286.984 251.156 288.123 249.155 288.947 247.35C289.771 245.545 290.066 244.133 289.833 243.116C289.644 242.018 288.598 241.58 286.696 241.804C284.356 242.156 282.461 242.751 281.011 243.587C279.623 244.405 278.379 245.248 277.278 246.117C276.177 246.986 275.13 247.805 274.135 248.574C273.203 249.325 272.063 249.832 270.715 250.095C267.968 250.908 265.815 250.628 264.255 249.256C262.739 247.804 261.547 245.61 260.679 242.676C259.811 239.742 259.645 236.77 260.181 233.76C260.698 230.688 261.7 227.879 263.188 225.334C264.675 222.79 266.595 220.558 268.947 218.641C271.281 216.66 273.853 215.255 276.662 214.424C277.786 214.091 278.781 213.899 279.648 213.846C280.515 213.793 281.133 214.391 281.503 215.64C281.761 216.514 281.636 217.467 281.127 218.501C280.599 219.471 279.867 220.095 278.931 220.372C278.868 220.391 278.703 220.406 278.435 220.417C278.148 220.366 277.852 220.284 277.547 220.17C277.242 220.057 276.955 220.006 276.687 220.017C276.4 219.966 276.226 219.95 276.163 219.969C273.999 219.998 272.147 220.851 270.607 222.529C269.066 224.207 267.833 226.235 266.907 228.613C266.025 230.911 265.48 233.313 265.27 235.819C265.043 238.262 265.187 240.358 265.704 242.106C265.908 242.793 266.199 243.318 266.578 243.681C267.001 243.963 267.458 244.133 267.951 244.191C268.505 244.231 269.073 244.199 269.653 244.095C270.278 243.91 270.902 243.726 271.526 243.541C272.775 243.172 273.968 242.615 275.106 241.871C276.306 241.109 277.426 240.303 278.464 239.452C279.565 238.583 280.684 237.777 281.822 237.033C283.022 236.271 284.309 235.687 285.683 235.28C286.307 235.096 287.049 235.08 287.909 235.233C288.75 235.323 289.585 235.62 290.412 236.122C291.221 236.561 291.974 237.154 292.669 237.898C293.346 238.581 293.864 239.412 294.222 240.392C294.855 241.156 295.071 242.348 294.872 243.968C294.735 245.57 294.313 247.358 293.607 249.332C292.901 251.306 291.954 253.385 290.767 255.57C289.562 257.691 288.32 259.688 287.04 261.56C285.742 263.37 284.402 264.921 283.019 266.212C281.654 267.567 280.401 268.379 279.258 268.649C278.01 269.018 277.15 268.865 276.679 268.19C276.27 267.496 275.927 266.681 275.65 265.744ZM294.485 218.215C293.953 218.712 293.462 219.231 293.01 219.772C292.603 220.232 292.196 220.692 291.789 221.152C291.364 221.549 290.92 221.884 290.457 222.157C289.994 222.429 289.464 222.586 288.865 222.627C288.49 222.738 288.114 222.612 287.735 222.249C287.337 221.823 286.993 221.348 286.702 220.823C286.33 220.254 286.03 219.698 285.801 219.155C285.554 218.549 285.415 218.081 285.386 217.75L292.852 209.94L286.323 185.801C286.208 184.952 286.615 184.493 287.544 184.421C288.455 184.288 289.416 184.207 290.426 184.18C290.551 184.143 290.757 184.15 291.043 184.201C291.374 184.171 291.611 184.169 291.754 184.194C292.128 185.917 292.517 187.805 292.92 189.858C293.368 191.83 293.825 193.834 294.291 195.868C294.738 197.841 295.208 199.772 295.7 201.664C296.254 203.537 296.846 205.195 297.476 206.638L310.36 198.55C310.591 198.413 310.834 198.545 311.088 198.945C311.386 199.264 311.68 199.687 311.971 200.211C312.325 200.718 312.616 201.243 312.845 201.786C313.073 202.33 313.188 202.601 313.188 202.601L299.262 214.053C299.428 214.615 299.857 215.948 300.547 218.052C301.3 220.138 302.172 222.629 303.165 225.526C304.14 228.361 305.188 231.446 306.31 234.78C307.413 238.052 308.452 241.105 309.427 243.94C310.401 246.775 311.242 249.276 311.951 251.442C312.641 253.547 313.07 254.88 313.236 255.441C313.665 257.351 313.38 258.454 312.381 258.749C311.445 259.026 310.276 258.863 308.875 258.259L294.485 218.215ZM398.583 228.262C397.79 226.731 396.937 224.879 396.022 222.705C395.152 220.45 394.25 218.205 393.317 215.969C392.366 213.671 391.398 211.547 390.414 209.597C389.492 207.629 388.494 206.092 387.42 204.984C386.156 212.418 384.861 218.368 383.534 222.834C382.189 227.238 380.82 230.528 379.427 232.706C378.079 234.802 376.771 236.003 375.504 236.31C374.236 236.617 373.04 236.36 371.915 235.539C370.789 234.718 369.799 233.551 368.944 232.038C368.134 230.445 367.453 228.949 366.904 227.55C366.498 226.176 366.237 224.149 366.123 221.467C366.009 218.785 366.048 215.82 366.241 212.572C366.416 209.261 366.769 205.864 367.3 202.38C367.894 198.878 368.664 195.629 369.611 192.633C370.558 189.637 371.697 187.06 373.027 184.901C374.357 182.743 375.928 181.396 377.738 180.86C380.294 179.629 382.436 179.64 384.164 180.894C385.937 182.067 386.972 184.647 387.268 188.633C388.487 192.753 389.686 196.234 390.866 199.076C392.109 201.899 393.314 204.598 394.483 207.172C395.714 209.727 396.92 212.425 398.1 215.267C399.342 218.091 400.573 221.563 401.791 225.683C402.013 226.432 402.113 227.116 402.092 227.733C402.115 228.269 401.44 228.74 400.066 229.147C399.879 229.202 399.583 229.12 399.179 228.9C398.837 228.662 398.638 228.449 398.583 228.262ZM381.144 187.898C380.162 187.102 379.198 187.286 378.252 188.448C377.305 189.61 376.454 191.322 375.697 193.583C374.94 195.843 374.262 198.488 373.664 201.516C373.067 204.545 372.572 207.576 372.179 210.612C371.787 213.647 371.514 216.512 371.36 219.205C371.188 221.836 371.177 223.978 371.326 225.631C371.991 227.878 372.713 229.057 373.492 229.166C374.253 229.212 374.985 228.588 375.688 227.294C376.391 226 377.09 224.231 377.785 221.989C378.542 219.728 379.2 217.361 379.758 214.888C380.379 212.396 380.924 209.994 381.395 207.682C381.928 205.352 382.322 203.47 382.577 202.037C382.751 200.56 382.828 199.213 382.807 197.997C382.787 196.781 382.723 195.646 382.615 194.592C382.551 193.456 382.361 192.358 382.048 191.297C381.796 190.217 381.495 189.084 381.144 187.898ZM448.172 178.663C447.922 178.737 447.585 178.972 447.159 179.37C446.715 179.705 446.258 180.112 445.789 180.59C445.363 180.987 444.937 181.385 444.512 181.782C444.086 182.18 443.686 182.434 443.312 182.545C442.687 182.729 442.089 182.771 441.515 182.669C441.004 182.548 440.638 182.113 440.416 181.364C440.232 180.74 440.337 180.064 440.733 179.336C441.191 178.589 441.743 177.815 442.388 177.013C443.034 176.211 443.688 175.44 444.352 174.701C445.016 173.961 445.461 173.286 445.688 172.676C445.268 171.714 444.62 169.869 443.745 167.141C442.87 164.412 441.947 161.291 440.975 157.776C440.048 154.181 439.186 150.464 438.39 146.626C437.657 142.769 437.199 139.272 437.018 136.135C436.881 132.916 437.156 130.289 437.844 128.253C438.531 126.216 439.904 125.233 441.961 125.303C443.273 124.916 444.579 124.97 445.88 125.468C447.163 125.903 448.354 126.603 449.454 127.568C450.536 128.47 451.467 129.552 452.248 130.815C453.091 132.059 453.679 133.243 454.012 134.367C454.196 134.991 454.243 135.724 454.153 136.566C454.106 137.326 453.708 137.817 452.959 138.039L452.678 138.122C452.616 138.141 452.544 138.128 452.463 138.084C449.838 134.719 447.848 132.694 446.491 132.009C445.178 131.243 444.295 131.47 443.841 132.691C443.45 133.893 443.383 135.847 443.641 138.555C443.961 141.244 444.463 144.32 445.148 147.784C445.815 151.185 446.577 154.795 447.436 158.615C448.275 162.372 449.041 165.88 449.733 169.137C450.89 168.456 451.827 167.839 452.547 167.287C453.328 166.716 454.016 166.173 454.611 165.658C455.187 165.08 455.71 164.552 456.179 164.074C456.63 163.533 457.162 163.036 457.775 162.583C458.901 161.571 460.162 160.553 461.556 159.53C462.995 158.426 464.463 157.652 465.962 157.209C466.497 159.019 466.597 160.619 466.261 162.008C465.988 163.379 465.431 164.596 464.591 165.659C463.814 166.704 462.825 167.607 461.625 168.37C460.406 169.07 459.147 169.748 457.848 170.403C456.61 171.041 455.436 171.66 454.323 172.261C453.211 172.861 452.273 173.478 451.51 174.111C452.898 178.114 454.2 181.598 455.417 184.565C456.696 187.513 457.812 190.137 458.763 192.435C459.777 194.715 460.642 196.836 461.358 198.797C462.118 200.677 462.69 202.612 463.075 204.603C463.204 205.04 463.389 205.664 463.629 206.476C463.913 207.206 464.104 207.965 464.2 208.751C464.359 209.518 464.335 210.239 464.126 210.911C463.9 211.521 463.38 211.947 462.569 212.187C461.82 212.408 461.212 212.418 460.745 212.217C460.259 211.953 459.797 211.309 459.358 210.285C457.488 205.339 455.911 201.155 454.627 197.732C453.387 194.229 452.354 191.31 451.527 188.974C450.682 186.577 450.057 184.691 449.651 183.318L448.376 179.01C448.302 178.76 448.234 178.644 448.172 178.663ZM480.878 184.57C480.584 184.725 480.144 184.957 479.557 185.266C478.969 185.576 478.323 185.801 477.618 185.942C476.913 186.083 476.264 186.071 475.672 185.906C475.018 185.76 474.58 185.313 474.359 184.564C474.229 184.127 474.231 183.787 474.363 183.544C474.494 183.301 474.723 182.928 475.05 182.424C476.091 180.894 476.821 179.117 477.24 177.092C477.704 174.986 478.046 172.814 478.266 170.576C478.469 168.276 478.711 165.997 478.994 163.741C479.321 161.404 479.838 159.248 480.544 157.274C481.25 155.3 482.329 153.555 483.782 152.039C485.235 150.523 487.25 149.418 489.828 148.723C490.889 148.409 492.149 148.308 493.608 148.42C495.067 148.532 496.487 148.858 497.87 149.4C499.234 149.879 500.465 150.601 501.566 151.565C502.666 152.53 503.428 153.73 503.853 155.166C504.313 155.573 504.213 156.384 503.553 157.597C502.956 158.792 502.044 160.182 500.815 161.768C499.568 163.291 498.121 164.941 496.475 166.718C494.872 168.414 493.313 170.029 491.798 171.564C490.283 173.098 488.949 174.443 487.797 175.598C486.645 176.754 485.906 177.583 485.58 178.087C485.453 178.804 485.415 179.596 485.468 180.463C485.521 181.33 485.596 182.156 485.692 182.942C485.833 183.648 485.964 184.322 486.087 184.964C486.253 185.526 486.382 185.963 486.475 186.275C486.825 187.462 487.151 188.791 487.451 190.264C487.813 191.718 488.282 193.073 488.857 194.329C489.476 195.504 490.32 196.408 491.39 197.042C492.442 197.613 493.936 197.613 495.871 197.041C497.931 196.431 499.719 195.359 501.234 193.825C502.73 192.228 504.037 190.45 505.155 188.49C506.273 186.53 507.197 184.491 507.929 182.374C508.723 180.238 509.397 178.273 509.953 176.479C510.553 174.604 511.111 173.048 511.627 171.809C512.143 170.57 512.682 169.867 513.244 169.701C513.868 169.516 514.561 169.447 515.321 169.494C516.126 169.46 516.648 169.848 516.888 170.66C517.221 171.784 517.149 173.264 516.675 175.102C516.262 176.921 515.565 178.927 514.584 181.118C513.665 183.291 512.497 185.537 511.078 187.858C509.704 190.097 508.252 192.19 506.723 194.136C505.176 196.02 503.595 197.675 501.98 199.103C500.348 200.469 498.813 201.364 497.377 201.789C494.568 202.62 492.242 202.561 490.4 201.612C488.558 200.663 487.02 199.251 485.786 197.376C484.615 195.482 483.656 193.389 482.911 191.098C482.209 188.725 481.532 186.549 480.878 184.57ZM490.63 154.189C489.569 154.503 488.602 155.366 487.73 156.778C486.839 158.128 486.085 159.709 485.466 161.521C484.892 163.253 484.493 165 484.268 166.764C484.087 168.447 484.144 169.788 484.439 170.787C485.376 170.51 486.616 169.77 488.161 168.566C489.75 167.281 491.262 165.85 492.696 164.271C494.13 162.693 495.327 161.117 496.287 159.543C497.247 157.969 497.57 156.651 497.257 155.59C497.09 155.028 496.733 154.624 496.186 154.379C495.638 154.134 495.015 153.978 494.317 153.913C493.681 153.83 493.032 153.818 492.371 153.878C491.71 153.938 491.13 154.041 490.63 154.189ZM543.639 185.355C543.05 184.511 542.086 183.201 540.746 181.425C539.405 179.649 537.898 177.65 536.223 175.43C534.548 173.21 532.764 170.852 530.872 168.357C528.979 165.861 527.196 163.503 525.521 161.283C523.845 159.063 522.338 157.065 520.998 155.289C519.658 153.512 518.653 152.18 517.983 151.292C517.442 150.841 516.914 150.318 516.398 149.724C515.927 149.049 515.59 148.368 515.387 147.681C515.165 146.932 515.127 146.23 515.273 145.576C515.419 144.922 515.799 144.368 516.412 143.915C517.098 143.712 517.765 143.786 518.412 144.138C519.104 144.409 519.666 144.82 520.101 145.37L539.041 169.81C538.845 168.918 538.54 167.311 538.125 164.989C537.691 162.606 537.221 160.097 536.713 157.463C536.206 154.83 535.713 152.362 535.236 150.059C534.802 147.675 534.519 146.028 534.385 145.117C534.263 144.474 534.113 143.737 533.935 142.907C533.758 142.077 533.652 141.26 533.617 140.455C533.645 139.632 533.795 138.875 534.066 138.184C534.399 137.475 535.003 136.991 535.877 136.732C536.501 136.547 536.956 136.481 537.243 136.531C537.592 136.564 538.046 136.837 538.606 137.351L565.671 162.748L556.308 131.096C558.119 130.56 559.506 130.659 560.47 131.392C561.478 132.045 562.238 133.008 562.75 134.282C563.325 135.538 563.741 136.943 563.997 138.496C564.253 140.05 564.587 141.411 565.001 142.579C565.13 143.016 565.438 143.943 565.925 145.36C566.412 146.778 566.964 148.414 567.581 150.268C568.259 152.104 568.953 154.105 569.662 156.272C570.352 158.376 571.006 160.355 571.622 162.21C572.301 164.046 572.884 165.672 573.371 167.09C573.858 168.507 574.166 169.435 574.296 169.872C575.102 170.991 575.32 171.843 574.95 172.428C574.624 172.932 574.036 173.241 573.188 173.356C572.339 173.471 571.426 173.368 570.448 173.046C569.471 172.725 568.755 172.257 568.302 171.644L539.615 144.894C541.966 154.45 543.856 162.445 545.284 168.88C546.712 175.315 547.876 180.741 548.775 185.16C548.791 185.902 548.59 186.369 548.171 186.561C547.753 186.752 547.266 186.828 546.711 186.789C546.2 186.668 545.662 186.454 545.096 186.147C544.529 185.839 544.044 185.575 543.639 185.355Z" fill="black"/>
<path d="M438.019 269.237L438.051 269.228L438.082 269.219C495.577 251.765 538.886 236.486 579.518 213.959L579.534 213.95L579.551 213.941C594.093 205.458 608.006 195.689 621.198 184.695L621.211 184.684L621.225 184.672C627.265 179.423 632.315 172.752 636.16 164.979C639.498 158.66 640.577 152.652 639.119 147.079C637.661 141.511 633.748 136.676 627.707 132.542L627.7 132.537L627.693 132.533C619.732 127.203 611.451 122.886 602.998 119.663C581.198 111.179 559.272 107.847 537.583 105.237L537.574 105.236L537.566 105.235C484.078 99.3512 431.079 99.8061 379.289 106.596C320.393 113.448 263.009 127.178 207.857 147.616C167.105 162.461 127.634 180.83 89.6996 202.605L89.6909 202.61C68.3898 215.003 47.0701 227.402 25.7317 239.808L25.7028 239.824L25.6745 239.842L24.9398 240.309C22.316 241.684 20.2833 242.022 18.7979 241.709C17.391 241.413 16.1619 240.465 15.2316 238.499C14.2977 236.524 14.2655 234.88 14.9124 233.379C15.5945 231.797 17.1363 230.13 19.848 228.412C22.1775 226.951 24.5068 225.488 26.8364 224.025C60.4542 202.913 94.1426 181.757 129.637 164.828L129.648 164.822C170.328 145.065 212.439 128.86 255.717 116.309C329.134 95.1808 405.721 85.3493 483.918 87.019L483.932 87.0193L483.946 87.0194C514.868 87.1787 546.184 90.9267 577.498 98.2193C591.937 102.158 606.305 107.291 620.502 113.583C626.639 116.442 632.502 120.646 637.78 125.996L637.796 126.012L637.813 126.028C649.475 137.24 653.542 152.346 648.371 166.696C645.187 175.319 640.901 183.061 635.665 189.675L635.664 189.675C623.265 205.349 607.369 215.5 590.804 224.611C537.642 253.848 480.921 273.367 422.527 288.279L422.527 288.279C418.684 289.262 414.843 290.249 411.003 291.236C391.129 296.344 371.283 301.446 351.273 305.859C320.292 312.679 289.296 319.343 258.001 324.688C228.602 329.696 198.953 333.814 169.058 336.596C152.094 337.74 134.893 337.4 117.576 335.577L117.571 335.577C109.407 334.743 101.164 332.214 93.1856 328.073L93.1733 328.066C84.5468 323.676 78.6574 317.086 75.6211 309.218C72.5834 301.346 72.3595 292.083 75.2716 282.298C79.1313 271.057 85.0453 261.442 92.5771 254.084L92.5939 254.067L92.6102 254.05C109.453 236.675 128.097 222.004 148.205 210.298L148.22 210.29L148.235 210.28C175.723 193.521 205.216 181.149 236.128 173.408C239.893 172.47 242.497 172.488 244.229 173.151C245.819 173.759 246.929 175.012 247.518 177.331C248.127 179.724 247.807 181.196 246.888 182.357C245.855 183.662 243.847 184.867 240.371 186.106L240.356 186.111L240.341 186.117C234.901 188.17 229.419 190.151 223.926 192.136C211.431 196.651 198.882 201.186 186.657 206.634C156.444 219.667 128.637 238.414 104.091 262.287L104.09 262.288C98.3491 267.881 93.3055 274.43 89.0638 281.784L89.0591 281.792L89.0546 281.801C84.248 290.346 82.7623 298.061 85.1491 304.489C87.5455 310.943 93.6346 315.543 102.684 318.329L102.694 318.332L102.704 318.334C111.216 320.845 119.78 322.375 128.28 322.9L128.282 322.9C154.529 324.505 180.435 322.951 205.642 318.258C253.438 310.074 301.17 301.547 348.556 291.753L348.57 291.75C376.167 285.811 403.422 278.496 423.738 273.044C429.003 271.631 433.801 270.343 438.019 269.237Z" fill="black" stroke="#CFCFCF" stroke-width="3.44509"/>
<path d="M337.455 281.874C337.727 281.959 337.999 282.045 338.271 282.131C340.027 282.684 341.795 283.241 343.627 283.749C356.304 287.368 368.438 292.184 379.291 299.826C392.483 309.115 402.98 320.689 409.284 335.751C409.694 336.415 410.153 337.046 410.659 337.641L412.616 331.026C413.252 329.001 414.242 327.269 416.783 327.673C418.821 327.98 420.155 330.118 419.521 332.829C417.709 340.44 415.838 348.037 413.626 355.534C412.496 359.318 409.735 359.947 406.332 357.621C400.413 353.598 394.543 349.499 388.681 345.405C388.142 345.028 387.603 344.651 387.064 344.275C384.497 342.49 383.75 340.221 385.002 338.308C386.255 336.395 388.409 335.994 391.313 337.554C393.328 338.637 395.406 339.925 397.48 341.21C398.394 341.777 399.308 342.343 400.215 342.891C400.996 343.363 401.796 343.828 402.989 344.523C403.365 344.742 403.779 344.983 404.244 345.254C403.685 341.275 402.36 337.441 400.345 333.965C390.59 317.095 375.387 304.044 357.234 296.957C351.836 294.754 346.176 293.09 340.511 291.424C338.633 290.872 336.755 290.32 334.886 289.748C331.475 288.913 328.231 287.507 325.29 285.589C323.554 283.143 323.869 282.765 325.397 280.93L325.46 280.855C327.441 278.467 332.965 280.349 336.384 281.513C336.771 281.645 337.131 281.768 337.455 281.874Z" fill="black"/>
<path d="M337.455 281.874C337.727 281.959 337.999 282.045 338.271 282.131C340.027 282.684 341.795 283.241 343.627 283.749C356.304 287.368 368.438 292.184 379.291 299.826C392.483 309.115 402.98 320.689 409.284 335.751C409.694 336.415 410.153 337.046 410.659 337.641L412.616 331.026C413.252 329.001 414.242 327.269 416.783 327.673C418.821 327.98 420.155 330.118 419.521 332.829C417.709 340.44 415.838 348.037 413.626 355.534C412.496 359.318 409.735 359.947 406.332 357.621C400.413 353.598 394.543 349.499 388.681 345.405C388.142 345.028 387.603 344.651 387.064 344.275C384.497 342.49 383.75 340.221 385.002 338.308C386.255 336.395 388.409 335.994 391.313 337.554C393.328 338.637 395.406 339.925 397.48 341.21C398.394 341.777 399.308 342.343 400.215 342.891C400.996 343.363 401.796 343.828 402.989 344.523C403.365 344.742 403.779 344.983 404.244 345.254C403.685 341.275 402.36 337.441 400.345 333.965C390.59 317.095 375.387 304.044 357.234 296.957C351.836 294.754 346.176 293.09 340.511 291.424C338.633 290.872 336.755 290.32 334.886 289.748C331.475 288.913 328.231 287.507 325.29 285.589C323.554 283.143 323.869 282.765 325.397 280.93L325.46 280.855C327.441 278.467 332.965 280.349 336.384 281.513C336.771 281.645 337.131 281.768 337.455 281.874Z" stroke="#F5F5F5"/>
</svg>
