<svg width="673" height="409" viewBox="0 0 673 409" fill="none" xmlns="http://www.w3.org/2000/svg">
<path d="M231.214 262.186C229.865 264.283 228.469 266.563 227.025 269.027C225.625 271.41 224.032 273.714 222.247 275.939C220.523 278.146 218.632 280.132 216.574 281.895C214.497 283.595 212.148 284.833 209.525 285.609C208.152 286.015 206.607 286.302 204.892 286.47C203.158 286.576 201.453 286.435 199.777 286.048C198.164 285.643 196.651 285.004 195.238 284.132C193.87 283.179 192.906 281.869 192.345 280.201C191.393 277.903 190.784 274.926 190.518 271.271C190.295 267.535 190.401 263.532 190.835 259.262C191.251 254.929 191.967 250.576 192.981 246.203C194.04 241.748 195.397 237.613 197.051 233.796C198.688 229.918 200.633 226.627 202.889 223.923C205.207 221.2 207.833 219.405 210.767 218.537C211.204 218.408 211.691 218.332 212.227 218.309C212.807 218.205 213.344 218.182 213.836 218.24C214.391 218.28 214.889 218.472 215.33 218.817C215.753 219.099 216.066 219.584 216.27 220.27C216.362 220.582 215.764 221.201 214.476 222.125C213.25 223.03 211.824 224.063 210.199 225.223C208.554 226.32 206.991 227.462 205.508 228.647C204.007 229.77 203.068 230.727 202.691 231.517C201.293 235.054 200.007 238.625 198.833 242.231C197.722 245.819 196.826 249.445 196.144 253.109C195.525 256.754 195.152 260.429 195.026 264.132C194.962 267.818 195.269 271.495 195.947 275.164C196.464 276.912 197.213 278.184 198.196 278.98C199.159 279.713 200.246 280.173 201.455 280.358C202.708 280.463 204.071 280.365 205.543 280.065C206.998 279.703 208.443 279.31 209.879 278.885C212.302 277.896 214.55 276.315 216.623 274.14C218.677 271.903 220.473 269.369 222.012 266.538C223.613 263.688 224.912 260.622 225.91 257.339C226.89 253.994 227.579 250.701 227.978 247.46L213.37 251.781C213.148 251.032 213.382 250.216 214.071 249.333C214.823 248.432 215.812 247.529 217.038 246.623C218.307 245.636 219.752 244.666 221.37 243.712C222.989 242.758 224.595 241.876 226.188 241.065C227.782 240.254 229.278 239.574 230.677 239.024C232.076 238.475 233.181 238.08 233.993 237.84L235.023 237.535C235.46 237.406 235.884 237.348 236.296 237.362C236.707 237.376 237.031 237.552 237.266 237.89C237.546 238.147 237.631 238.665 237.522 239.444C237.497 239.587 237.334 239.839 237.033 240.199C236.795 240.541 236.494 240.902 236.131 241.281C235.83 241.641 235.529 242.002 235.229 242.362C234.909 242.661 234.697 242.859 234.59 242.959C234.055 245.969 234.032 249.336 234.523 253.061C235.014 256.785 235.791 260.561 236.855 264.388C237.919 268.214 239.171 271.986 240.609 275.702C242.029 279.355 243.401 282.616 244.724 285.483L241.792 288.998C240.822 288.47 239.883 287.594 238.978 286.368C238.134 285.124 237.37 283.687 236.684 282.056C235.998 280.426 235.378 278.675 234.824 276.802C234.27 274.929 233.766 273.109 233.311 271.343C232.901 269.495 232.496 267.782 232.096 266.203C231.76 264.605 231.466 263.266 231.214 262.186ZM249.386 253.043C249.093 253.198 248.652 253.43 248.065 253.74C247.478 254.049 246.831 254.274 246.126 254.415C245.421 254.556 244.772 254.544 244.181 254.379C243.526 254.233 243.088 253.786 242.867 253.037C242.738 252.6 242.739 252.26 242.871 252.017C243.003 251.774 243.232 251.401 243.558 250.897C244.599 249.367 245.329 247.59 245.749 245.565C246.212 243.459 246.554 241.287 246.775 239.049C246.977 236.749 247.22 234.471 247.503 232.214C247.83 229.877 248.346 227.721 249.052 225.747C249.758 223.773 250.838 222.028 252.29 220.512C253.743 218.996 255.758 217.891 258.336 217.196C259.398 216.883 260.658 216.781 262.116 216.893C263.575 217.005 264.996 217.331 266.378 217.873C267.742 218.352 268.974 219.074 270.074 220.039C271.174 221.003 271.936 222.203 272.361 223.639C272.821 224.046 272.721 224.857 272.062 226.07C271.465 227.265 270.552 228.655 269.323 230.241C268.077 231.764 266.63 233.414 264.983 235.191C263.38 236.887 261.821 238.502 260.306 240.037C258.791 241.571 257.457 242.916 256.306 244.072C255.154 245.227 254.415 246.057 254.088 246.56C253.961 247.277 253.924 248.069 253.976 248.936C254.029 249.803 254.104 250.629 254.201 251.416C254.341 252.121 254.473 252.795 254.595 253.437C254.761 253.999 254.89 254.436 254.983 254.749C255.334 255.935 255.659 257.264 255.959 258.737C256.321 260.191 256.79 261.546 257.365 262.802C257.984 263.977 258.829 264.881 259.899 265.515C260.95 266.087 262.444 266.086 264.379 265.514C266.439 264.904 268.227 263.832 269.742 262.298C271.239 260.701 272.546 258.923 273.663 256.963C274.781 255.003 275.705 252.964 276.437 250.847C277.231 248.711 277.906 246.746 278.461 244.952C279.061 243.078 279.619 241.521 280.135 240.282C280.651 239.043 281.19 238.34 281.752 238.174C282.376 237.989 283.069 237.92 283.829 237.967C284.634 237.933 285.156 238.321 285.396 239.133C285.729 240.257 285.658 241.737 285.183 243.575C284.77 245.394 284.074 247.4 283.092 249.591C282.174 251.764 281.005 254.01 279.587 256.331C278.212 258.571 276.761 260.663 275.232 262.609C273.684 264.493 272.103 266.148 270.489 267.576C268.856 268.942 267.321 269.837 265.886 270.262C263.076 271.093 260.75 271.034 258.908 270.085C257.066 269.137 255.528 267.724 254.294 265.849C253.123 263.955 252.165 261.862 251.419 259.571C250.717 257.198 250.04 255.022 249.386 253.043ZM259.138 222.662C258.077 222.976 257.11 223.839 256.238 225.251C255.347 226.601 254.593 228.182 253.975 229.994C253.401 231.726 253.001 233.473 252.776 235.237C252.595 236.92 252.652 238.261 252.947 239.26C253.884 238.983 255.125 238.243 256.67 237.039C258.258 235.754 259.77 234.323 261.204 232.744C262.638 231.166 263.835 229.59 264.795 228.016C265.756 226.442 266.079 225.124 265.765 224.063C265.599 223.501 265.242 223.097 264.694 222.852C264.146 222.607 263.523 222.452 262.825 222.386C262.189 222.303 261.541 222.291 260.879 222.351C260.218 222.411 259.638 222.514 259.138 222.662ZM287.649 220.238C287.117 220.734 286.625 221.253 286.174 221.794C285.767 222.254 285.36 222.714 284.953 223.174C284.527 223.571 284.083 223.906 283.621 224.179C283.158 224.451 282.628 224.608 282.029 224.65C281.654 224.76 281.278 224.634 280.899 224.271C280.501 223.845 280.157 223.37 279.866 222.845C279.494 222.276 279.194 221.72 278.965 221.177C278.718 220.571 278.579 220.103 278.549 219.772L286.016 211.962L279.487 187.823C279.372 186.974 279.779 186.515 280.708 186.443C281.619 186.31 282.58 186.229 283.59 186.202C283.715 186.165 283.921 186.172 284.207 186.223C284.538 186.193 284.775 186.191 284.918 186.216C285.292 187.939 285.681 189.827 286.084 191.88C286.532 193.852 286.989 195.856 287.455 197.89C287.902 199.863 288.372 201.795 288.863 203.686C289.417 205.559 290.01 207.217 290.64 208.66L303.524 200.572C303.755 200.435 303.998 200.567 304.252 200.967C304.55 201.287 304.844 201.709 305.135 202.234C305.489 202.74 305.78 203.265 306.009 203.808C306.237 204.352 306.351 204.623 306.351 204.623L292.426 216.075C292.592 216.637 293.021 217.97 293.711 220.074C294.464 222.16 295.336 224.651 296.329 227.548C297.303 230.383 298.352 233.468 299.474 236.802C300.577 240.074 301.616 243.127 302.59 245.962C303.565 248.797 304.406 251.298 305.115 253.464C305.805 255.569 306.234 256.902 306.4 257.463C306.829 259.373 306.544 260.476 305.545 260.771C304.609 261.048 303.44 260.885 302.039 260.281L287.649 220.238ZM372.854 236.992C372.872 237.055 373.417 236.486 374.488 235.287C375.621 234.069 376.899 232.537 378.322 230.69C379.789 228.763 381.259 226.732 382.733 224.599C384.188 222.404 385.327 220.403 386.151 218.598C386.975 216.793 387.271 215.381 387.037 214.364C386.848 213.266 385.802 212.828 383.9 213.052C381.56 213.404 379.665 213.999 378.215 214.835C376.827 215.653 375.583 216.496 374.482 217.365C373.382 218.234 372.334 219.053 371.339 219.822C370.407 220.573 369.267 221.08 367.919 221.343C365.172 222.155 363.019 221.876 361.459 220.504C359.943 219.052 358.751 216.858 357.883 213.924C357.015 210.99 356.849 208.018 357.385 205.008C357.902 201.936 358.904 199.127 360.392 196.582C361.879 194.038 363.799 191.806 366.151 189.888C368.485 187.908 371.057 186.503 373.866 185.672C374.99 185.339 375.985 185.147 376.852 185.094C377.719 185.041 378.337 185.639 378.707 186.888C378.965 187.762 378.84 188.715 378.331 189.748C377.803 190.719 377.071 191.343 376.135 191.62C376.072 191.639 375.907 191.654 375.639 191.665C375.352 191.614 375.056 191.532 374.751 191.418C374.446 191.305 374.159 191.254 373.891 191.265C373.604 191.214 373.43 191.198 373.367 191.217C371.204 191.246 369.351 192.099 367.811 193.777C366.27 195.454 365.037 197.483 364.111 199.861C363.229 202.159 362.684 204.561 362.474 207.067C362.247 209.51 362.391 211.606 362.908 213.354C363.112 214.041 363.403 214.566 363.782 214.929C364.205 215.211 364.662 215.381 365.155 215.439C365.71 215.479 366.277 215.447 366.857 215.343C367.482 215.158 368.106 214.974 368.73 214.789C369.979 214.42 371.172 213.863 372.31 213.119C373.51 212.357 374.63 211.55 375.668 210.7C376.769 209.831 377.888 209.025 379.026 208.281C380.226 207.519 381.513 206.934 382.887 206.528C383.511 206.344 384.253 206.328 385.113 206.481C385.955 206.571 386.789 206.868 387.616 207.37C388.425 207.809 389.178 208.401 389.873 209.146C390.55 209.829 391.068 210.66 391.426 211.64C392.059 212.404 392.275 213.595 392.076 215.216C391.939 216.818 391.517 218.606 390.811 220.58C390.105 222.554 389.159 224.633 387.971 226.818C386.766 228.939 385.524 230.936 384.244 232.808C382.946 234.618 381.606 236.169 380.223 237.46C378.858 238.815 377.605 239.627 376.462 239.897C375.214 240.266 374.354 240.113 373.883 239.438C373.474 238.744 373.131 237.929 372.854 236.992ZM391.689 189.463C391.157 189.96 390.666 190.479 390.215 191.02C389.807 191.48 389.4 191.94 388.993 192.399C388.568 192.797 388.124 193.132 387.661 193.405C387.199 193.677 386.668 193.834 386.069 193.875C385.694 193.986 385.318 193.86 384.939 193.497C384.541 193.071 384.197 192.596 383.906 192.071C383.534 191.502 383.234 190.946 383.005 190.403C382.758 189.797 382.619 189.329 382.59 188.998L390.056 181.188L383.527 157.049C383.412 156.2 383.819 155.74 384.748 155.669C385.659 155.536 386.62 155.455 387.63 155.428C387.755 155.391 387.961 155.398 388.247 155.449C388.578 155.419 388.815 155.417 388.958 155.442C389.332 157.165 389.721 159.053 390.124 161.106C390.572 163.078 391.029 165.082 391.495 167.116C391.942 169.089 392.412 171.02 392.904 172.912C393.458 174.785 394.05 176.443 394.68 177.886L407.564 169.798C407.795 169.661 408.038 169.793 408.292 170.193C408.59 170.512 408.884 170.934 409.176 171.459C409.529 171.966 409.82 172.491 410.049 173.034C410.277 173.578 410.392 173.849 410.392 173.849L396.466 185.301C396.632 185.863 397.061 187.196 397.751 189.3C398.504 191.385 399.376 193.877 400.369 196.774C401.344 199.609 402.392 202.694 403.514 206.028C404.617 209.3 405.656 212.353 406.631 215.188C407.605 218.023 408.446 220.524 409.155 222.69C409.845 224.794 410.274 226.127 410.44 226.689C410.869 228.599 410.584 229.702 409.585 229.997C408.649 230.274 407.48 230.111 406.079 229.507L391.689 189.463ZM452.616 212.279C451.824 210.748 450.97 208.896 450.056 206.722C449.185 204.468 448.283 202.223 447.351 199.987C446.399 197.688 445.431 195.564 444.447 193.615C443.526 191.647 442.528 190.109 441.453 189.001C440.19 196.436 438.895 202.386 437.568 206.852C436.223 211.255 434.854 214.546 433.461 216.723C432.112 218.819 430.804 220.021 429.537 220.328C428.27 220.635 427.074 220.377 425.948 219.556C424.823 218.735 423.832 217.568 422.978 216.056C422.167 214.462 421.487 212.966 420.937 211.567C420.531 210.194 420.271 208.166 420.156 205.484C420.042 202.802 420.082 199.837 420.275 196.589C420.45 193.279 420.803 189.882 421.334 186.398C421.927 182.895 422.698 179.646 423.645 176.651C424.592 173.655 425.73 171.078 427.061 168.919C428.391 166.76 429.961 165.413 431.772 164.877C434.327 163.646 436.469 163.658 438.198 164.912C439.97 166.085 441.005 168.664 441.301 172.65C442.52 176.77 443.72 180.251 444.9 183.093C446.142 185.917 447.348 188.615 448.516 191.189C449.747 193.744 450.953 196.443 452.133 199.285C453.376 202.108 454.606 205.58 455.825 209.701C456.047 210.45 456.147 211.133 456.126 211.75C456.149 212.287 455.473 212.758 454.1 213.164C453.913 213.22 453.617 213.137 453.212 212.917C452.87 212.679 452.671 212.466 452.616 212.279ZM435.177 171.915C434.195 171.12 433.231 171.303 432.285 172.465C431.339 173.628 430.487 175.339 429.73 177.6C428.973 179.861 428.296 182.505 427.698 185.534C427.1 188.562 426.605 191.594 426.213 194.629C425.821 197.665 425.548 200.529 425.394 203.222C425.222 205.853 425.21 207.995 425.36 209.648C426.024 211.896 426.746 213.074 427.525 213.183C428.286 213.23 429.018 212.606 429.722 211.311C430.425 210.017 431.124 208.249 431.819 206.006C432.576 203.746 433.233 201.379 433.792 198.905C434.412 196.413 434.958 194.011 435.428 191.7C435.961 189.37 436.355 187.488 436.61 186.055C436.784 184.577 436.861 183.231 436.841 182.015C436.821 180.799 436.756 179.663 436.648 178.609C436.584 177.474 436.395 176.376 436.081 175.314C435.829 174.235 435.528 173.102 435.177 171.915ZM448.507 167.056L448.285 166.307C448.1 165.683 448.19 165.181 448.553 164.802C448.978 164.405 449.503 164.114 450.128 163.929C450.627 163.781 451.114 163.705 451.588 163.701C452.043 163.634 452.488 163.876 452.923 164.426C453.387 165.307 453.962 166.563 454.648 168.193C455.315 169.761 456.069 171.507 456.91 173.431C457.751 175.354 458.628 177.403 459.543 179.577C460.501 181.67 461.401 183.678 462.241 185.602C463.126 187.445 463.955 189.1 464.729 190.569C465.503 192.037 466.197 193.122 466.812 193.823C464.852 187.885 463.506 182.648 462.775 178.111C462.026 173.513 462.026 169.609 462.774 166.4C463.566 163.111 465.179 160.529 467.612 158.655C470.089 156.701 473.511 155.417 477.878 154.804C479.814 154.231 481.086 154.975 481.696 157.036C481.936 157.847 481.571 158.566 480.602 159.192C479.615 159.756 478.484 160.294 477.21 160.806C475.917 161.257 474.665 161.729 473.453 162.223C472.242 162.717 471.429 163.297 471.015 163.963C469.137 165.876 468.117 168.282 467.956 171.182C467.858 174.062 468.147 177.337 468.825 181.006C469.503 184.676 470.377 188.661 471.445 192.961C472.557 197.181 473.426 201.609 474.05 206.245C474.235 206.869 474.124 207.411 473.717 207.871C473.309 208.331 472.731 208.671 471.982 208.893C471.295 209.096 470.563 209.143 469.783 209.034C469.067 208.907 468.429 208.586 467.87 208.073L448.507 167.056ZM490.579 160.213C490.047 160.71 489.555 161.228 489.104 161.769C488.697 162.229 488.29 162.689 487.883 163.149C487.457 163.546 487.013 163.881 486.551 164.154C486.088 164.426 485.558 164.583 484.959 164.625C484.584 164.736 484.207 164.609 483.828 164.246C483.431 163.821 483.087 163.345 482.796 162.82C482.424 162.252 482.123 161.695 481.895 161.152C481.648 160.546 481.509 160.078 481.479 159.747L488.946 151.938L482.417 127.798C482.301 126.95 482.708 126.49 483.638 126.419C484.549 126.285 485.509 126.204 486.52 126.177C486.645 126.14 486.85 126.147 487.137 126.198C487.468 126.168 487.705 126.166 487.848 126.192C488.222 127.914 488.61 129.802 489.014 131.855C489.462 133.827 489.918 135.831 490.385 137.866C490.832 139.838 491.302 141.77 491.793 143.661C492.347 145.534 492.939 147.192 493.57 148.635L506.453 140.547C506.685 140.411 506.927 140.542 507.181 140.943C507.48 141.262 507.774 141.684 508.065 142.209C508.419 142.715 508.71 143.24 508.938 143.784C509.167 144.327 509.281 144.599 509.281 144.599L495.356 156.05C495.522 156.612 495.95 157.945 496.641 160.049C497.393 162.135 498.266 164.626 499.259 167.524C500.233 170.358 501.281 173.443 502.403 176.777C503.507 180.049 504.546 183.103 505.52 185.937C506.495 188.772 507.336 191.273 508.045 193.44C508.735 195.544 509.163 196.877 509.33 197.439C509.759 199.349 509.474 200.451 508.475 200.747C507.538 201.024 506.37 200.86 504.969 200.256L490.579 160.213ZM522.363 172.299C522.069 172.454 521.629 172.686 521.042 172.996C520.454 173.305 519.808 173.53 519.103 173.671C518.397 173.812 517.749 173.8 517.157 173.635C516.503 173.489 516.065 173.042 515.844 172.293C515.714 171.856 515.716 171.516 515.847 171.273C515.979 171.03 516.208 170.657 516.535 170.153C517.576 168.623 518.306 166.846 518.725 164.821C519.189 162.715 519.531 160.543 519.751 158.305C519.954 156.005 520.196 153.727 520.479 151.47C520.806 149.133 521.323 146.977 522.029 145.003C522.735 143.029 523.814 141.284 525.267 139.768C526.72 138.252 528.735 137.147 531.313 136.452C532.374 136.139 533.634 136.037 535.093 136.149C536.552 136.261 537.972 136.587 539.355 137.129C540.719 137.608 541.95 138.33 543.05 139.295C544.15 140.259 544.913 141.459 545.338 142.895C545.797 143.302 545.698 144.113 545.038 145.326C544.441 146.521 543.528 147.911 542.3 149.497C541.053 151.02 539.606 152.67 537.96 154.447C536.357 156.143 534.798 157.758 533.283 159.293C531.768 160.827 530.434 162.172 529.282 163.328C528.13 164.483 527.391 165.313 527.065 165.816C526.938 166.533 526.9 167.325 526.953 168.192C527.006 169.059 527.081 169.885 527.177 170.672C527.318 171.377 527.449 172.051 527.572 172.693C527.738 173.255 527.867 173.692 527.959 174.005C528.31 175.191 528.636 176.52 528.936 177.993C529.298 179.447 529.767 180.802 530.342 182.058C530.961 183.233 531.805 184.137 532.875 184.771C533.927 185.343 535.421 185.342 537.356 184.77C539.416 184.16 541.204 183.088 542.719 181.554C544.215 179.957 545.522 178.179 546.64 176.219C547.757 174.259 548.682 172.22 549.414 170.103C550.208 167.967 550.882 166.002 551.438 164.208C552.038 162.334 552.596 160.777 553.112 159.538C553.628 158.299 554.167 157.596 554.729 157.43C555.353 157.245 556.046 157.176 556.806 157.223C557.611 157.189 558.133 157.577 558.373 158.389C558.705 159.513 558.634 160.993 558.159 162.831C557.747 164.65 557.05 166.656 556.069 168.847C555.15 171.02 553.982 173.266 552.563 175.587C551.189 177.827 549.737 179.919 548.208 181.865C546.661 183.749 545.08 185.404 543.465 186.832C541.832 188.198 540.298 189.093 538.862 189.518C536.053 190.349 533.727 190.29 531.885 189.341C530.043 188.393 528.505 186.98 527.271 185.105C526.1 183.211 525.141 181.118 524.396 178.827C523.694 176.454 523.016 174.278 522.363 172.299ZM532.115 141.918C531.054 142.232 530.087 143.095 529.215 144.507C528.324 145.857 527.57 147.438 526.951 149.25C526.377 150.982 525.978 152.729 525.753 154.493C525.571 156.176 525.629 157.517 525.924 158.516C526.861 158.239 528.101 157.499 529.646 156.295C531.235 155.01 532.747 153.579 534.181 152C535.615 150.422 536.812 148.846 537.772 147.272C538.732 145.698 539.055 144.38 538.741 143.319C538.575 142.757 538.218 142.353 537.67 142.108C537.123 141.863 536.5 141.708 535.802 141.642C535.166 141.559 534.517 141.547 533.856 141.607C533.195 141.667 532.614 141.77 532.115 141.918ZM585.364 157.025C585.165 158.645 584.842 160.54 584.397 162.708C584.015 164.858 583.418 166.97 582.605 169.043C581.855 171.098 580.813 172.968 579.478 174.653C578.143 176.337 576.446 177.485 574.386 178.094C573.449 178.371 572.672 178.499 572.055 178.478C571.482 178.376 570.912 178.171 570.346 177.863C569.842 177.537 569.31 177.117 568.751 176.604C568.254 176.072 567.645 175.505 566.924 174.903C565.832 171.9 564.738 168.659 563.641 165.181C562.589 161.623 561.732 158.04 561.073 154.433C560.395 150.764 560.031 147.239 559.982 143.859C559.995 140.461 560.49 137.429 561.467 134.764C562.506 132.08 564.136 129.901 566.356 128.226C568.576 126.55 571.586 125.592 575.384 125.351C575.055 123.548 574.393 121.198 573.401 118.3C572.408 115.403 571.307 112.368 570.097 109.196C568.887 106.023 567.714 102.975 566.577 100.053C565.423 97.0675 564.528 94.6164 563.893 92.6995C563.727 92.1377 563.857 91.658 564.282 91.2605C564.752 90.7822 565.29 90.4195 565.895 90.1724C566.501 89.9253 567.094 89.7499 567.675 89.6461C568.317 89.5239 568.751 89.4975 568.975 89.5669C571.122 97.2828 573.325 104.846 575.585 112.257C577.826 119.605 580.068 126.953 582.309 134.302C584.595 141.569 586.871 148.805 589.138 156.01C591.405 163.215 593.609 170.439 595.751 177.681C595.954 178.367 596.104 179.104 596.201 179.89C596.379 180.72 595.968 181.283 594.969 181.578C594.595 181.689 594.183 181.675 593.735 181.536C593.305 181.46 592.963 181.221 592.708 180.821L585.364 157.025ZM573.305 131.059C571.332 131.506 569.753 132.822 568.566 135.006C567.423 137.11 566.615 139.657 566.141 142.648C565.731 145.621 565.622 148.811 565.815 152.216C565.989 155.559 566.416 158.726 567.097 161.715C567.821 164.624 568.766 167.128 569.93 169.228C571.157 171.309 572.577 172.553 574.19 172.958C575.564 172.552 576.687 171.642 577.559 170.23C578.413 168.756 579.09 167.028 579.59 165.047C580.09 163.066 580.41 160.934 580.55 158.652C580.671 156.308 580.695 154.095 580.622 152.011C580.612 149.91 580.501 148.042 580.289 146.407C580.121 144.692 579.917 143.428 579.677 142.617C579.492 141.992 579.228 140.984 578.884 139.592C578.54 138.2 578.103 136.836 577.571 135.499C577.04 134.163 576.399 133.029 575.648 132.097C574.96 131.146 574.179 130.8 573.305 131.059Z" fill="black"/>
<path d="M438.019 269.237L438.051 269.228L438.082 269.219C495.577 251.765 538.886 236.486 579.518 213.959L579.534 213.95L579.551 213.941C594.093 205.458 608.006 195.689 621.198 184.695L621.211 184.684L621.225 184.672C627.265 179.423 632.315 172.752 636.16 164.979C639.498 158.66 640.577 152.652 639.119 147.079C637.661 141.511 633.748 136.676 627.707 132.542L627.7 132.537L627.693 132.533C619.732 127.203 611.451 122.886 602.998 119.663C581.198 111.179 559.272 107.847 537.583 105.237L537.574 105.236L537.566 105.235C484.078 99.3512 431.079 99.8061 379.289 106.596C320.393 113.448 263.009 127.178 207.857 147.616C167.105 162.461 127.634 180.83 89.6996 202.605L89.6909 202.61C68.3898 215.003 47.0701 227.402 25.7317 239.808L25.7028 239.824L25.6745 239.842L24.9398 240.309C22.316 241.684 20.2833 242.022 18.7979 241.709C17.391 241.413 16.1619 240.465 15.2316 238.499C14.2977 236.524 14.2655 234.88 14.9124 233.379C15.5945 231.797 17.1363 230.13 19.848 228.412C22.1775 226.951 24.5068 225.488 26.8364 224.025C60.4542 202.913 94.1426 181.757 129.637 164.828L129.648 164.822C170.328 145.065 212.439 128.86 255.717 116.309C329.134 95.1808 405.721 85.3493 483.918 87.019L483.932 87.0193L483.946 87.0194C514.868 87.1787 546.184 90.9267 577.498 98.2193C591.937 102.158 606.305 107.291 620.502 113.583C626.639 116.442 632.502 120.646 637.78 125.996L637.796 126.012L637.813 126.028C649.475 137.24 653.542 152.346 648.371 166.696C645.187 175.319 640.901 183.061 635.665 189.675L635.664 189.675C623.265 205.349 607.369 215.5 590.804 224.611C537.642 253.848 480.921 273.367 422.527 288.279L422.527 288.279C418.684 289.262 414.843 290.249 411.003 291.236C391.129 296.344 371.283 301.446 351.273 305.859C320.292 312.679 289.296 319.343 258.001 324.688C228.602 329.696 198.953 333.814 169.058 336.596C152.094 337.74 134.893 337.4 117.576 335.577L117.571 335.577C109.407 334.743 101.164 332.214 93.1856 328.073L93.1733 328.066C84.5468 323.676 78.6574 317.086 75.6211 309.218C72.5834 301.346 72.3595 292.083 75.2716 282.298C79.1313 271.057 85.0453 261.442 92.5771 254.084L92.5939 254.067L92.6102 254.05C109.453 236.675 128.097 222.004 148.205 210.298L148.22 210.29L148.235 210.28C175.723 193.521 205.216 181.149 236.128 173.408C239.893 172.47 242.497 172.488 244.229 173.151C245.819 173.759 246.929 175.012 247.518 177.331C248.127 179.724 247.807 181.196 246.888 182.357C245.855 183.662 243.847 184.867 240.371 186.106L240.356 186.111L240.341 186.117C234.901 188.17 229.419 190.151 223.926 192.136C211.431 196.651 198.882 201.186 186.657 206.634C156.444 219.667 128.637 238.414 104.091 262.287L104.09 262.288C98.3491 267.881 93.3055 274.43 89.0638 281.784L89.0591 281.792L89.0546 281.801C84.248 290.346 82.7623 298.061 85.1491 304.489C87.5455 310.943 93.6346 315.543 102.684 318.329L102.694 318.332L102.704 318.334C111.216 320.845 119.78 322.375 128.28 322.9L128.282 322.9C154.529 324.505 180.435 322.951 205.642 318.258C253.438 310.074 301.17 301.547 348.556 291.753L348.57 291.75C376.167 285.811 403.422 278.496 423.738 273.044C429.003 271.631 433.801 270.343 438.019 269.237Z" fill="black" stroke="#CFCFCF" stroke-width="3.44509"/>
</svg>
